<svg width="54" height="64" viewBox="0 0 54 64" fill="none" xmlns="http://www.w3.org/2000/svg">
<g clip-path="url(#clip0_19_57)">
<path d="M3.45816 63.1616C2.94809 62.8779 2.39328 62.6731 1.94049 62.2933C1.12259 61.6043 0.737803 60.5803 0.673374 59.3899C0.666215 59.2661 0.669794 59.1424 0.669794 59.0208C0.669794 40.8917 0.669794 22.7627 0.669794 4.6336C0.669794 2.49174 1.78478 0.780804 3.47069 0.556804C4.27248 0.450137 5.11364 0.640004 5.92438 0.787204C12.0112 1.87734 18.0944 2.98667 24.1794 4.09387C25.6416 4.36054 27.1038 4.6144 28.5624 4.90667C30.4631 5.2864 31.519 6.78187 31.5226 9.0816C31.5298 13.7685 31.5244 18.4555 31.5244 23.1403C31.5244 23.3835 31.5244 23.6267 31.5244 23.9211C32.949 24.2603 34.345 24.5931 35.7391 24.9237C40.7969 26.1227 45.8546 27.3088 50.9087 28.5333C52.2331 28.8533 53.094 29.8475 53.4537 31.4283C53.4752 31.5243 53.5181 31.616 53.5503 31.7077V59.8336C53.4358 60.2133 53.3463 60.6059 53.2013 60.9664C52.7056 62.1931 51.8251 62.8267 50.762 63.1637H3.45816V63.1616ZM29.3051 60.5056V59.7035C29.3051 42.9312 29.3051 26.1611 29.3051 9.3888C29.3051 9.22454 29.3087 9.06027 29.3034 8.896C29.2783 8.0832 28.9794 7.64587 28.3029 7.50294C27.5083 7.3344 26.7083 7.19574 25.9083 7.05067C18.7351 5.76 11.5602 4.47147 4.38702 3.1808C3.38836 3.0016 2.86577 3.50507 2.86577 4.704C2.86219 22.7712 2.86219 40.8384 2.86577 58.9035C2.86577 60.0512 3.28635 60.5355 4.26532 60.5376C5.83132 60.5419 7.39731 60.5397 8.96331 60.5376C9.11364 60.5376 9.26577 60.5184 9.47337 60.5035C9.47337 60.2304 9.47337 59.9893 9.47337 59.7483C9.47337 56.1515 9.46801 52.5547 9.47516 48.9579C9.48053 46.3957 10.8514 44.7616 12.9937 44.7531C15.0412 44.7445 17.0904 44.7467 19.1378 44.7531C21.3624 44.7573 22.6886 46.3509 22.6922 49.024C22.6957 52.5995 22.6922 56.1771 22.6922 59.7525C22.6922 59.9936 22.6922 60.2325 22.6922 60.5077H29.3016L29.3051 60.5056ZM31.5548 60.5397H32.1794C38.0497 60.5397 43.9181 60.5397 49.7884 60.5397C51.0107 60.5397 51.3579 60.1259 51.3579 58.6709C51.3579 50.0992 51.3579 41.5253 51.3579 32.9536C51.3579 31.5392 51.1414 31.2341 49.9924 30.9632C44.8327 29.7472 39.6729 28.5269 34.5132 27.3109C33.5396 27.0805 32.566 26.8565 31.5566 26.6197V60.5397H31.5548ZM20.5016 60.512V59.9573C20.5016 56.3008 20.5016 52.6443 20.5016 48.9877C20.5016 47.8507 20.1025 47.3728 19.1557 47.3728C17.1441 47.3707 15.1306 47.3728 13.119 47.3728C12.0452 47.3728 11.698 47.7845 11.698 49.0688C11.6962 52.6635 11.698 56.2581 11.698 59.8528C11.698 60.0683 11.7159 60.2837 11.7266 60.512H20.5016Z" fill="#6479BF"/>
<path d="M10.6367 13.1733C11.34 13.1733 12.0452 13.1584 12.7485 13.1776C13.4268 13.1947 13.8796 13.7237 13.885 14.4619C13.8904 15.2171 13.4161 15.7803 12.7199 15.7867C11.2953 15.7995 9.8689 15.7995 8.4425 15.7867C7.74809 15.7803 7.27382 15.2149 7.28098 14.4597C7.28814 13.7195 7.73914 13.1947 8.41923 13.1776C9.15659 13.1584 9.89574 13.1733 10.6349 13.1733H10.6367Z" fill="#6479BF"/>
<path d="M10.574 23.6864C9.87069 23.6864 9.16554 23.6971 8.46219 23.6843C7.76241 23.6715 7.28456 23.1296 7.28098 22.3765C7.2774 21.6149 7.74094 21.0795 8.45324 21.0709C9.87785 21.056 11.3042 21.056 12.7306 21.0709C13.4358 21.0795 13.8993 21.6341 13.885 22.3957C13.8725 23.1275 13.4072 23.6651 12.7378 23.68C12.0166 23.6971 11.2953 23.6843 10.574 23.6843V23.6864Z" fill="#6479BF"/>
<path d="M10.5329 31.5819C9.84563 31.5819 9.15839 31.5904 8.47114 31.5797C7.76778 31.5669 7.28993 31.0357 7.28098 30.2827C7.27203 29.5189 7.73378 28.9749 8.44429 28.9685C9.8689 28.9536 11.2953 28.9536 12.7217 28.9685C13.4268 28.9749 13.894 29.5253 13.8868 30.2827C13.8778 31.0357 13.4018 31.5669 12.6966 31.5797C11.9754 31.5925 11.2541 31.5819 10.5329 31.5819Z" fill="#6479BF"/>
<path d="M10.5937 36.8576C11.2971 36.8576 12.0022 36.8448 12.7056 36.8597C13.4215 36.8747 13.8832 37.3973 13.885 38.1568C13.885 38.912 13.4107 39.4645 12.711 39.4709C11.2863 39.4837 9.85994 39.4859 8.43355 39.4709C7.74272 39.4645 7.26845 38.8885 7.28097 38.1333C7.2935 37.3931 7.74451 36.8789 8.42818 36.8618C9.14943 36.8448 9.87068 36.8576 10.5919 36.8576H10.5937Z" fill="#6479BF"/>
<path d="M21.6362 13.1733C22.3396 13.1733 23.0447 13.1584 23.7481 13.1776C24.4461 13.1947 24.9221 13.7557 24.9043 14.5045C24.8881 15.2405 24.4264 15.7803 23.7535 15.7867C22.311 15.8016 20.8685 15.8037 19.426 15.7867C18.7548 15.7781 18.3092 15.2299 18.3092 14.4811C18.3092 13.7195 18.7351 13.1989 19.4206 13.1797C20.1579 13.1584 20.8971 13.1755 21.6362 13.1755V13.1733Z" fill="#6479BF"/>
<path d="M21.5951 23.6864C20.8917 23.6864 20.1866 23.6971 19.4832 23.6843C18.7745 23.6715 18.3145 23.1488 18.311 22.3787C18.3074 21.5936 18.7458 21.0773 19.4707 21.0709C20.8953 21.056 22.3217 21.056 23.7463 21.0709C24.4443 21.0795 24.9203 21.6448 24.9078 22.3936C24.8935 23.1488 24.4174 23.6693 23.7087 23.6821C23.0054 23.6949 22.3002 23.6843 21.5969 23.6843L21.5951 23.6864Z" fill="#6479BF"/>
<path d="M21.5951 31.5819C20.8917 31.5819 20.1866 31.5925 19.4832 31.5797C18.7745 31.5669 18.3145 31.0443 18.311 30.2741C18.3074 29.4891 18.7458 28.9728 19.4707 28.9664C20.8953 28.9515 22.3217 28.9515 23.7463 28.9664C24.4443 28.9749 24.9203 29.5403 24.9078 30.2891C24.8935 31.0443 24.4174 31.5648 23.7087 31.5776C23.0054 31.5904 22.3002 31.5797 21.5969 31.5797L21.5951 31.5819Z" fill="#6479BF"/>
<path d="M21.638 36.8576C22.3414 36.8576 23.0465 36.8448 23.7499 36.8619C24.43 36.8789 24.8881 37.3973 24.9042 38.1312C24.9204 38.8864 24.4461 39.4645 23.7535 39.4709C22.311 39.4859 20.8685 39.488 19.4259 39.4709C18.7548 39.4624 18.311 38.9141 18.311 38.1632C18.311 37.4016 18.7369 36.8832 19.4242 36.864C20.1615 36.8427 20.9007 36.8597 21.6398 36.8597L21.638 36.8576Z" fill="#6479BF"/>
<path d="M41.4322 39.4773C40.7289 39.4773 40.0237 39.488 39.3204 39.4752C38.6063 39.4624 38.1481 38.9461 38.1409 38.1781C38.1338 37.393 38.5723 36.8704 39.2935 36.8618C40.7181 36.8469 42.1445 36.8469 43.5691 36.8618C44.2707 36.8682 44.7468 37.4293 44.736 38.1781C44.7253 38.9333 44.2492 39.4624 43.5441 39.4752C42.8407 39.488 42.1356 39.4773 41.4322 39.4773Z" fill="#6479BF"/>
<path d="M41.4716 44.7531C42.1749 44.7531 42.8801 44.7403 43.5834 44.7573C44.2617 44.7744 44.7199 45.2971 44.7342 46.0288C44.7485 46.7861 44.2743 47.36 43.5799 47.3664C42.1374 47.3813 40.6948 47.3835 39.2523 47.3664C38.583 47.3579 38.1391 46.8053 38.1391 46.0565C38.1391 45.2949 38.5669 44.7787 39.2541 44.7616C39.9915 44.7403 40.7306 44.7573 41.4698 44.7573L41.4716 44.7531Z" fill="#6479BF"/>
<path d="M41.4662 55.2661C40.7629 55.2661 40.0577 55.2725 39.3544 55.2661C38.608 55.2555 38.1391 54.7392 38.1409 53.9477C38.1427 53.1435 38.5884 52.6571 39.3615 52.6507C40.7521 52.64 42.1427 52.64 43.5333 52.6507C44.2492 52.6571 44.7199 53.1755 44.7324 53.9264C44.745 54.7029 44.2582 55.2448 43.5244 55.2661C43.5065 55.2661 43.4904 55.2661 43.4725 55.2661C42.8031 55.2661 42.1338 55.2661 41.4626 55.2661H41.4662Z" fill="#6479BF"/>
</g>
<defs>
<clipPath id="clip0_19_57">
<rect width="53.6913" height="64" fill="white" transform="translate(0.154358)"/>
</clipPath>
</defs>
</svg>
