<svg width="64" height="64" viewBox="0 0 64 64" fill="none" xmlns="http://www.w3.org/2000/svg">
<path d="M0.888885 28.6014C1.03555 27.509 1.11333 26.3989 1.34222 25.3241C2.84444 18.2687 6.92222 13.2171 13.4867 10.1341C14.0933 9.84937 14.6067 9.99502 14.8511 10.485C15.0889 10.9639 14.8956 11.4979 14.3022 11.7716C12.4489 12.6234 10.7244 13.6717 9.21777 15.0466C5.10444 18.7917 2.90666 23.4306 2.82222 28.9677C2.73555 34.7145 4.88222 39.5785 9.16222 43.4538C12.7556 46.7067 17.0511 48.2979 21.9111 48.4061C21.9689 48.4061 22.0289 48.3884 22.14 48.373C21.94 47.6734 21.7667 46.976 21.5267 46.3029C21.48 46.1727 21.1711 46.0778 20.9756 46.0645C19.1378 45.9387 17.3578 45.5547 15.6689 44.8309C10.0578 42.4254 6.56 38.2565 5.42889 32.3045C3.88444 24.1743 8.50444 16.2935 16.3578 13.4665C17.4933 13.0582 18.6956 12.8309 19.9311 12.5021C19.8089 12.3785 19.6711 12.224 19.52 12.085C17.6178 10.3283 15.7111 8.57378 13.8089 6.8193C13.0578 6.12633 13.02 5.83723 13.58 5.00965C14.4511 3.72302 15.3356 2.44523 16.1889 1.14758C16.5089 0.662059 16.9089 0.439162 17.5 0.443576C20.5467 0.456818 23.5956 0.456818 26.6422 0.443576C27.2267 0.441369 27.6444 0.635576 27.9667 1.12551C28.8444 2.45627 29.7511 3.76716 30.64 5.0913C31.1333 5.8262 31.0956 6.14178 30.4244 6.76192C28.5089 8.53406 26.5867 10.2996 24.6689 12.0695C24.5222 12.2041 24.3844 12.3498 24.2533 12.48C33.1911 14.464 38.66 19.7319 38.9578 28.9765C39.2111 36.8949 34.8978 42.229 27.5111 45.3032C27.7378 45.9564 27.9756 46.6472 28.26 47.4637C29.3556 46.965 30.42 46.5721 31.3956 46.0204C36.6822 43.0367 39.9356 38.5567 41.0778 32.6466C42.6689 24.4083 38.3 15.8764 30.7 12.1843C30.3911 12.0342 30.0733 11.8952 29.7756 11.7252C29.2467 11.4207 29.0822 10.9175 29.3378 10.4541C29.5778 10.0171 30.0689 9.86923 30.6067 10.1076C32.4511 10.9241 34.16 11.9614 35.7044 13.2546C37.9378 15.1239 39.7178 17.3462 40.9978 19.9525C41.1622 20.288 41.3667 20.405 41.7444 20.4027C47.0756 20.3564 51.8111 22.016 55.8556 25.4477C59.7111 28.7183 62.1267 32.8673 62.92 37.8483C64.0333 44.8287 62.0933 50.9263 57.1511 56.0154C53.5622 59.7098 49.1156 61.7247 43.9667 62.2146C43.8289 62.2279 43.6933 62.2786 43.5578 62.3139H40.5111C40.3378 62.2742 40.1667 62.2124 39.9911 62.197C38.1022 62.0094 36.2689 61.5879 34.5067 60.8905C29.4511 58.8954 25.66 55.5101 23.1978 50.6902C23.0133 50.3305 22.8 50.2378 22.4044 50.2223C21.1289 50.1694 19.84 50.1473 18.5844 49.9376C14.1333 49.1895 10.2867 47.2254 7.1 44.0452C4.25555 41.2094 2.34222 37.8372 1.50666 33.9222C1.16889 32.3399 1.08889 30.7023 0.89333 29.0891C0.89333 28.928 0.89333 28.7669 0.89333 28.6058L0.888885 28.6014ZM34.9756 21.504C31.5156 15.6778 23.96 12.5815 16.8489 15.243C9.56222 17.9685 5.59111 25.4058 7.39111 32.8033C9.25111 40.4436 16.1756 44.1335 21.0444 44.149C20.3622 33.3749 25.0156 25.845 34.9756 21.504ZM43.14 26.4496C43.8089 37.2612 39.1711 44.7956 29.2044 49.1233C32.8711 55.1437 40.3955 57.9641 47.3044 55.3997C54.6 52.6896 58.5089 45.515 56.8067 37.9255C55.1956 30.7421 48.7467 26.6394 43.1422 26.4519L43.14 26.4496ZM35.9533 23.2629C26.8622 26.1914 20.6956 36.021 23.4844 46.3559C26.1733 56.3222 36.6844 62.453 46.6467 59.9305C57.0978 57.2844 63.4267 46.9892 60.8311 36.7581C58.2778 26.6946 48.9622 21.9432 42.0311 22.3051C42.2089 22.8899 42.4133 23.4593 42.5444 24.0419C42.6311 24.4325 42.8333 24.5429 43.2067 24.587C44.1533 24.6952 45.1067 24.7901 46.0333 24.9975C55.2422 27.0742 61.0111 36.6499 58.5044 45.6695C56.1844 54.0204 48.1489 59.2243 39.5089 57.9663C30.3533 56.6356 23.8089 47.8698 25.3489 38.8215C26.4244 32.4987 30.04 28.085 36.0556 25.6463C36.2556 25.5647 36.4511 25.4764 36.7022 25.3683C36.4444 24.6422 36.2044 23.9669 35.9533 23.2607V23.2629ZM37.0378 27.2772C29.7622 29.6695 26.0178 37.4554 27.2044 43.3258C33.5 41.2976 38.1133 34.3967 37.0378 27.2772ZM27.68 6.78399H16.4911C18.4156 8.55834 20.2422 10.24 22.0867 11.9393C23.9467 10.2245 25.7556 8.55613 27.68 6.78399ZM15.9044 4.8662H28.2644C27.7111 4.04523 27.2178 3.28385 26.6844 2.55116C26.5778 2.40551 26.3244 2.28633 26.1378 2.28633C23.4378 2.26868 20.7378 2.27089 18.0378 2.28192C17.8756 2.28192 17.6467 2.33709 17.5644 2.44965C17.0022 3.22868 16.4733 4.02978 15.9022 4.8662H15.9044Z" fill="#6479BF"/>
</svg>
