<svg width="64" height="64" viewBox="0 0 64 64" fill="none" xmlns="http://www.w3.org/2000/svg">
<path d="M9.17334 18.2635C8.10668 18.2635 7.11041 18.2635 6.11628 18.2635C5.84534 18.2635 5.57441 18.2656 5.30348 18.2592C4.78721 18.2485 4.41814 18.0224 4.28588 17.5061C4.15148 16.9856 4.38401 16.6123 4.82134 16.3563C6.20588 15.5456 7.59681 14.7435 8.98561 13.9371C10.6261 12.9835 12.2581 12.0192 13.9072 11.0827C14.2379 10.8949 14.3723 10.6901 14.3659 10.3019C14.3445 8.61227 14.3552 6.92053 14.3573 5.23093C14.3573 4.2304 14.6731 3.89973 15.6501 3.89333C17.0261 3.8848 18.4043 3.8848 19.7803 3.89333C20.6997 3.89973 21.0197 4.22187 21.0368 5.13493C21.0453 5.63627 21.0432 6.13547 21.0475 6.6368C21.0475 6.6752 21.0731 6.7136 21.12 6.84373C21.3355 6.73067 21.5467 6.62827 21.7472 6.51093C24.8832 4.68907 28.0256 2.87787 31.1445 1.02827C31.7653 0.661333 32.2645 0.674133 32.8768 1.03253C41.5339 6.0864 50.2037 11.1232 58.8672 16.1664C58.976 16.2283 59.0848 16.2901 59.1915 16.3563C59.6203 16.6251 59.8549 16.992 59.7184 17.5125C59.5819 18.0309 59.2086 18.2549 58.6966 18.2592C57.6534 18.2656 56.6101 18.2635 55.5669 18.2635C55.3451 18.2635 55.1211 18.2635 54.8587 18.2635C54.8459 18.5472 54.8288 18.752 54.8288 18.9547C54.8288 23.4837 54.8309 28.0128 54.8203 32.5397C54.8203 32.9493 54.8928 33.1904 55.3195 33.4016C56.3733 33.9221 56.9344 34.8181 56.9344 36.0171C56.9366 44.448 56.9387 52.8789 56.9344 61.3099C56.9344 62.1909 56.5739 62.5259 55.6501 62.5259C47.3045 62.5259 38.9589 62.5643 30.6133 62.5024C28.3605 62.4853 26.1099 62.5963 23.8571 62.5387C21.6043 62.4832 19.3515 62.5259 17.0965 62.5259C14.8224 62.5259 12.5483 62.5259 10.2741 62.5259C8.15788 62.5259 7.07201 61.4443 7.07201 59.3344C7.07201 47.9189 7.07628 36.5035 7.06561 25.088C7.06561 23.7291 7.61388 22.7733 8.85334 22.2059C8.98348 22.1461 9.16268 21.9989 9.16481 21.888C9.18828 20.7061 9.17974 19.5221 9.17974 18.2613L9.17334 18.2635ZM54.7285 16.2603C54.735 16.2091 54.7413 16.1579 54.7477 16.1067C54.5557 15.9872 54.368 15.8656 54.1717 15.7525C47.0037 11.5797 39.8315 7.41547 32.6741 3.2256C32.1685 2.92907 31.8144 2.95467 31.328 3.24053C24.1323 7.44747 16.9259 11.6352 9.72161 15.8293C9.55521 15.9253 9.39948 16.0384 9.11788 16.224C9.44854 16.2432 9.61281 16.2581 9.77708 16.2624C10.8907 16.2859 11.1808 16.5803 11.1851 17.6917C11.1872 18.5899 11.1851 19.4859 11.1851 20.384C11.1851 20.9173 11.1851 21.4507 11.1851 22.0267C11.5563 22.0267 11.8251 22.0267 12.0939 22.0267C17.4549 22.0267 22.816 22.0203 28.1771 22.0288C30.1739 22.0309 31.2683 23.1424 31.2704 25.1371C31.2747 27.5776 31.2704 30.0203 31.2704 32.4608C31.2704 32.6848 31.2704 32.9088 31.2704 33.0816H52.8235V32.256C52.8235 27.52 52.8235 22.784 52.8235 18.048C52.8235 17.8816 52.8214 17.7131 52.8235 17.5467C52.8405 16.6336 53.1669 16.2944 54.0629 16.2667C54.2848 16.2603 54.5067 16.2667 54.7285 16.2667V16.2603ZM9.07094 37.8816V38.5408C9.07094 45.4699 9.07094 52.3989 9.07094 59.328C9.07094 60.3179 9.28001 60.5205 10.2912 60.5205C16.1963 60.5205 22.1013 60.5205 28.0085 60.5205C29.0795 60.5205 29.2629 60.3328 29.2629 59.2341C29.2629 52.3456 29.2629 45.4592 29.2629 38.5707C29.2629 38.3488 29.2629 38.1269 29.2629 37.8795H9.07094V37.8816ZM54.895 60.4864V41.0624H31.3131V60.4864H54.895ZM29.2629 35.8251C29.2629 35.5648 29.2629 35.36 29.2629 35.1552C29.2629 31.8379 29.2629 28.5205 29.2629 25.2053C29.2629 24.2368 29.0581 24.0256 28.0896 24.0256C22.1461 24.0235 16.2027 24.0235 10.2571 24.0256C9.27361 24.0256 9.07094 24.2283 9.07094 25.1904C9.07094 28.5291 9.07094 31.8656 9.07094 35.2043C9.07094 35.4048 9.09228 35.6053 9.10721 35.8272H29.2629V35.8251ZM54.9291 38.9952C54.9291 38.1333 54.9291 37.3248 54.9291 36.5163C54.9291 35.2939 54.7264 35.0848 53.5296 35.0848C46.5835 35.0848 39.6373 35.0848 32.6912 35.0848C32.5035 35.0848 32.2709 35.0208 32.1365 35.1061C31.8293 35.3045 31.3557 35.5563 31.3323 35.8208C31.2405 36.8661 31.2939 37.9243 31.2939 38.9931H54.9269L54.9291 38.9952ZM19.0293 5.94347H16.384V9.62133C17.248 9.11787 18.0501 8.66133 18.8395 8.18133C18.9376 8.1216 19.0165 7.94667 19.0208 7.82293C19.04 7.2064 19.0293 6.58773 19.0293 5.94347Z" fill="#6479BF"/>
<path d="M9.95839 43.0443C9.95839 42.3168 9.94772 41.5872 9.96052 40.8597C9.97332 40.1877 10.3936 39.7483 10.9781 39.7632C11.5328 39.7781 11.9488 40.2091 11.9552 40.8448C11.9701 42.3019 11.9723 43.7589 11.9552 45.2139C11.9467 45.8603 11.5392 46.2635 10.9632 46.2677C10.3616 46.272 9.97332 45.856 9.96266 45.1648C9.95199 44.4565 9.96052 43.7504 9.96052 43.0421L9.95839 43.0443Z" fill="#6479BF"/>
<path d="M43.1083 59.3152C38.447 59.3109 34.6603 55.5328 34.6624 50.8864C34.6624 46.2421 38.4598 42.4491 43.1083 42.4512C47.7718 42.4533 51.5392 46.2229 51.5414 50.8864C51.5414 55.5477 47.7696 59.3216 43.1083 59.3152ZM43.0891 57.3099C46.6326 57.3205 49.5168 54.4704 49.536 50.9376C49.5552 47.36 46.7008 44.4736 43.1296 44.4587C39.5776 44.4437 36.6571 47.3515 36.6678 50.8949C36.6763 54.4213 39.5563 57.2971 43.0891 57.3077V57.3099Z" fill="#6479BF"/>
<path d="M9.95839 30.8203C9.95839 30.112 9.94985 29.4059 9.96052 28.6976C9.97332 28.0107 10.3659 27.5904 10.9653 27.5989C11.5371 27.6053 11.9467 28.0128 11.9531 28.6592C11.9701 30.1163 11.9701 31.5733 11.9531 33.0283C11.9467 33.6683 11.5328 34.0928 10.9717 34.1056C10.3829 34.1184 9.97119 33.6832 9.95839 33.0048C9.94559 32.2773 9.95625 31.5477 9.95625 30.8203H9.95839Z" fill="#6479BF"/>
<path d="M43.023 38.0267C42.272 38.0267 41.5211 38.0352 40.7702 38.0245C40.1088 38.0139 39.6864 37.6491 39.6544 37.0901C39.6224 36.544 40.0427 36.0533 40.6678 36.0427C42.2528 36.0128 43.8379 36.0128 45.4208 36.0427C46.0736 36.0555 46.4491 36.4971 46.4278 37.0816C46.4064 37.6597 46.0118 38.0139 45.3355 38.0245C44.5632 38.0373 43.7931 38.0267 43.0208 38.0267H43.023Z" fill="#6479BF"/>
<path d="M50.6859 37.0539C50.6795 37.6128 50.2464 38.0288 49.6853 38.0203C49.1285 38.0117 48.6955 37.5701 48.7061 37.0197C48.7168 36.48 49.1819 36.0277 49.7173 36.0384C50.2656 36.0491 50.6923 36.4949 50.6859 37.0517V37.0539Z" fill="#6479BF"/>
<path d="M53.3632 37.024C53.3717 37.5723 52.9386 38.0139 52.3797 38.0203C51.8165 38.0288 51.3877 37.6107 51.3813 37.0517C51.3749 36.4949 51.8037 36.0469 52.3498 36.0405C52.8853 36.032 53.3525 36.4864 53.361 37.024H53.3632Z" fill="#6479BF"/>
</svg>
