<svg width="63" height="64" viewBox="0 0 63 64" fill="none" xmlns="http://www.w3.org/2000/svg">
<path d="M6.50293 31.9361C6.50293 29.5387 6.50293 27.2361 6.50293 24.9335C6.50293 22.6588 7.75733 21.4009 10.0208 21.3988C11.1728 21.3988 12.3248 21.3988 13.4768 21.3988C15.6507 21.4009 16.9307 22.6847 16.9349 24.8624C16.9392 27.1865 16.9349 29.5107 16.9349 31.9339C17.8437 31.9339 18.7248 31.9339 19.6059 31.9339C21.9611 31.9339 23.1941 33.1682 23.1941 35.5289C23.1941 38.2473 23.1941 40.9656 23.1941 43.8951C25.1141 41.3361 27.4971 39.7852 30.4965 39.1627V38.5661C30.4965 34.7471 30.4923 30.928 30.5029 27.1111C30.5029 26.7019 30.4304 26.452 30.0229 26.2431C29.1397 25.7886 28.5488 25.0067 28.4741 24.0202C28.3696 22.6352 28.1883 21.2178 28.7963 19.8242C27.6016 19.6454 26.4112 19.5356 25.2528 19.2792C23.7957 18.9561 22.3557 18.5426 20.9285 18.0988C20.4677 17.9567 20.0325 17.6465 19.6549 17.3277C18.7163 16.535 18.7397 15.2879 19.8277 14.6977C20.9008 14.1161 22.0869 13.6832 23.2731 13.3924C24.9328 12.9874 26.6395 12.7785 28.4037 12.4705C28.6619 8.55235 30.2832 5.27397 33.4491 2.85504C35.7445 1.10169 38.3664 0.309018 41.2421 0.33702C46.7461 0.390869 53.1184 4.88194 53.5003 12.4231C55.5589 12.828 57.6069 13.192 59.6357 13.6465C60.3653 13.8102 61.0885 14.1161 61.7456 14.4823C63.1984 15.2943 63.2731 16.7375 61.8437 17.5733C60.8645 18.1462 59.7595 18.5749 58.6587 18.8441C57.0608 19.234 55.4139 19.4214 53.7883 19.695C53.5557 19.7337 53.3253 19.7725 53.0459 19.8199C53.6688 21.136 53.464 22.4865 53.4064 23.8048C53.3573 24.927 52.7195 25.7541 51.7445 26.3228C51.5653 26.4262 51.3776 26.6997 51.3755 26.8957C51.3541 30.9108 51.3605 34.928 51.3648 38.943C51.3648 39.0076 51.3883 39.0701 51.3883 39.0744C52.3184 39.4148 53.2549 39.6581 54.0997 40.0846C58.3472 42.2257 60.5872 45.7259 60.7323 50.5121C60.8197 53.3619 60.7515 56.2181 60.7472 59.0699C60.7472 59.9121 60.5168 60.218 59.7019 60.3968C54.9296 61.4372 50.1552 62.4689 45.3808 63.4985C45.1717 63.5438 44.9477 63.5373 44.7323 63.5373C43.5589 63.5416 42.3835 63.4964 41.2123 63.5481C38.264 63.6752 35.3797 63.3585 32.5061 62.6542C29.1547 61.8314 25.7627 61.1744 22.3856 60.4657C21.7243 60.3257 21.1696 60.1168 21.0821 59.3521H20.0667C20.1371 60.6747 20.0155 61.9261 18.9125 62.8222C18.296 63.3241 17.5899 63.5653 16.7984 63.5373C14.9083 63.4662 13.9824 62.2061 13.7669 59.3758H9.63466C9.70719 60.6984 9.57279 61.9671 8.43146 62.861C7.80426 63.3521 7.09599 63.5804 6.30453 63.5352C4.43573 63.4296 3.51413 62.1501 3.33706 59.3715C3.23253 59.3521 3.11519 59.3306 2.99573 59.309C1.28266 59.0053 0.243727 57.7732 0.241593 56.0113C0.237327 50.0426 0.241593 44.0738 0.241593 38.103C0.241593 37.1164 0.230927 36.1278 0.243727 35.1412C0.267193 33.3039 1.60479 31.9619 3.43519 31.9404C4.43146 31.9296 5.42559 31.9404 6.50079 31.9404L6.50293 31.9361ZM32.7109 40.9656C32.0709 41.0626 31.4352 41.1746 30.7973 41.25C30.4368 41.293 30.2875 41.4546 30.2235 41.8208C30.0037 43.0485 29.7413 44.2698 29.4981 45.4933C29.0587 47.7076 28.4827 49.9262 28.8176 52.1987C29.1888 54.7103 29.7072 57.1981 30.1829 59.6924C30.2107 59.8346 30.4133 60.0263 30.5605 60.0522C33.5387 60.5907 36.4315 61.6418 39.5312 61.4523C41.1547 61.3532 42.7888 61.4415 44.4187 61.4286C44.7621 61.4264 45.112 61.3876 45.4491 61.3166C47.3392 60.9224 49.2251 60.5002 51.1195 60.1232C51.544 60.0392 51.6805 59.8238 51.7509 59.4383C51.9429 58.3828 52.1605 57.3317 52.3717 56.2805C52.8155 54.0662 53.3851 51.8454 53.0459 49.5751C52.6469 46.9128 52.0965 44.2742 51.5931 41.6291C51.5675 41.4977 51.3904 41.3253 51.2603 41.2995C50.5648 41.1638 49.8608 41.069 49.3595 40.9915C48.6256 42.4411 48.0581 43.8218 47.2731 45.0604C45.8757 47.2661 43.9493 48.9849 41.8416 50.4906C41.0629 51.0463 40.7941 51.0549 40.0283 50.4906C36.7109 48.0415 33.8651 45.2176 32.7131 40.9635L32.7109 40.9656ZM2.37706 40.3647V50.8998C3.31146 50.8998 4.20106 50.8998 5.08853 50.8998C7.34133 50.902 8.58719 52.1642 8.58933 54.4518C8.58933 55.3629 8.58933 56.2762 8.58933 57.1701H21.0821V40.3668C20.0923 40.3668 19.1408 40.3711 18.1915 40.3668C16.1627 40.356 14.8592 39.0378 14.8507 36.9829C14.8464 36.0244 14.8507 35.0658 14.8507 34.0879H8.59146C8.59146 35.1111 8.59786 36.0954 8.59146 37.0777C8.57439 39.0033 7.25173 40.3474 5.35306 40.3647C4.37813 40.3733 3.40319 40.3647 2.38133 40.3647H2.37706ZM36.4144 20.2593C34.7824 20.4295 33.1483 19.807 31.512 20.3325C30.8293 20.5522 30.5136 20.8129 30.5008 21.5538C30.4901 22.1677 30.488 22.7816 30.5008 23.3955C30.5157 24.0805 30.8336 24.438 31.4992 24.5565C32.3056 24.6987 32.5253 24.9959 32.5957 25.8317C32.6533 26.5274 32.7237 27.2361 32.9072 27.9038C33.9888 31.8305 37.88 34.4907 41.7755 34.0018C46.008 33.4719 49.1269 30.0987 49.272 25.8963C49.304 24.9615 49.5045 24.7288 50.4261 24.5479C51.0171 24.4316 51.3456 24.0719 51.3584 23.4601C51.3733 22.7816 51.416 22.0945 51.3371 21.4225C51.2987 21.0972 51.0832 20.6707 50.8187 20.5221C50.3835 20.2765 49.8459 20.1042 49.3509 20.1042C48.0475 20.1042 46.7419 20.2098 45.3723 20.2787C46.7739 20.9163 47.3285 21.7003 47.1685 22.7536C47.032 23.6583 46.296 24.3993 45.4 24.5371C44.4955 24.675 43.4629 24.1516 43.2112 23.262C43.0619 22.7342 43.0619 22.0643 43.2603 21.5668C43.4544 21.0778 43.9835 20.7267 44.3205 20.3648H37.3531C38.616 21.108 39.0597 21.9868 38.7525 23.025C38.4709 23.9792 37.6133 24.6017 36.6469 24.5544C35.6997 24.507 34.8699 23.7682 34.6949 22.8182C34.4965 21.7391 35.0491 20.9356 36.4123 20.2593H36.4144ZM50.4304 8.87114C49.624 5.46783 45.0309 2.41131 40.8624 2.43716C36.7472 2.46301 32.1584 5.56691 31.4373 8.86468C37.7733 10.1958 44.0923 10.1786 50.4304 8.87114ZM37.8011 35.669C37.8011 36.8084 37.8011 37.879 37.8011 38.9495C37.7989 39.9425 37.5515 40.2397 36.5957 40.3905C36.024 40.481 35.4501 40.565 34.8805 40.6533C35.2261 43.1993 38.296 46.8245 41.0139 48.5132C43.6464 46.4131 46.0699 44.1449 47.0363 40.7115C46.9104 40.6598 46.872 40.6361 46.8315 40.6296C46.296 40.5434 45.7605 40.4573 45.2229 40.3797C44.3525 40.2527 44.0667 39.9296 44.0624 39.0378C44.0581 37.9457 44.0624 36.8515 44.0624 35.6733C41.9611 36.2979 39.9088 36.2958 37.8032 35.6711L37.8011 35.669ZM30.6629 10.842C30.6053 11.6067 30.5733 12.324 30.4901 13.0327C30.424 13.6099 30.6075 13.9352 31.2005 14.0386C32.5893 14.2798 33.9611 14.6395 35.3584 14.7925C39.0619 15.1996 42.7803 15.206 46.4837 14.7925C47.9429 14.6288 49.3851 14.2734 50.8272 13.9739C51.0235 13.933 51.3349 13.7133 51.3349 13.5776C51.3349 12.6751 51.2645 11.7747 51.2155 10.8463C44.2907 12.3261 37.5301 12.3348 30.6629 10.842ZM60.28 16.3541C60.2693 16.2658 60.2608 16.1775 60.2501 16.0892C60.1563 16.0439 60.0688 15.9793 59.9707 15.9599C57.8459 15.5334 55.7211 15.1048 53.5941 14.6977C53.4555 14.6718 53.2379 14.7429 53.1419 14.8485C52.3035 15.7811 51.1813 16.1753 50.0293 16.3692C48.0837 16.6944 46.1211 16.9766 44.1563 17.0929C40.2459 17.3234 36.3333 17.2523 32.4677 16.5157C31.0896 16.2529 29.6859 15.9707 28.6661 14.8248C28.5595 14.7042 28.2672 14.6826 28.0773 14.7128C26.3664 15.0014 24.6555 15.2987 22.9509 15.6261C22.4816 15.7165 22.0336 15.9168 21.5749 16.0655C21.9035 16.3283 22.2021 16.451 22.5115 16.535C25.4192 17.3277 28.3973 17.6444 31.3883 17.8705C39.4501 18.4779 47.4971 18.4262 55.5163 17.3083C57.1184 17.0843 58.6949 16.6794 60.2821 16.3584L60.28 16.3541ZM54.0421 42.4045C54.4325 45.2887 55.1216 48.1255 55.1152 50.9601C55.1088 53.7862 54.4091 56.6101 54.0059 59.4792C55.5163 59.1518 57.0736 58.8136 58.6288 58.4754C58.6288 55.5202 58.6608 52.6273 58.6075 49.7367C58.5925 48.9871 58.3728 48.2181 58.1317 47.4987C57.3893 45.2779 55.9899 43.5827 54.0421 42.4045ZM27.8341 59.4727C27.4331 56.5605 26.7397 53.7259 26.7397 50.8891C26.7397 48.0652 27.4331 45.2391 27.8256 42.3916C25.3488 43.9317 23.6336 46.1374 23.3712 49.0883C23.0981 52.1556 23.2475 55.2595 23.2133 58.3483C23.2133 58.385 23.2517 58.4237 23.2901 58.4927C24.8069 58.8201 26.3472 59.1518 27.8341 59.4727ZM14.8443 31.9081C14.8443 29.4224 14.8549 26.9927 14.8357 24.5651C14.8315 23.8931 14.392 23.5183 13.6795 23.5118C12.4208 23.4989 11.1621 23.5032 9.90346 23.5097C8.93919 23.514 8.58933 23.878 8.58719 24.8731C8.58293 26.3637 8.58719 27.8521 8.58719 29.3427C8.58719 30.1892 8.58719 31.0357 8.58719 31.9081H14.8443ZM6.49226 34.0492C5.38506 34.0492 4.32266 33.9867 3.27733 34.0858C2.94879 34.1181 2.42613 34.5661 2.39626 34.8634C2.29173 35.9791 2.35359 37.11 2.35359 38.2537C2.62879 38.2537 2.82293 38.2537 3.01706 38.2537C3.79786 38.2537 4.57653 38.2645 5.35733 38.2494C6.00586 38.2365 6.45813 37.8897 6.47946 37.3017C6.51999 36.2376 6.49013 35.1692 6.49013 34.047L6.49226 34.0492ZM21.1013 38.2516C21.1013 37.1251 21.1248 36.0761 21.0928 35.0314C21.0757 34.4864 20.7344 34.0944 20.2011 34.0685C19.128 34.019 18.0528 34.0535 16.9392 34.0535C16.9392 35.1498 16.9221 36.1751 16.9456 37.1983C16.9605 37.8229 17.3573 38.2279 17.9739 38.243C18.9893 38.2688 20.0048 38.2494 21.1035 38.2494L21.1013 38.2516ZM2.33226 53.0107C2.33226 54.1222 2.31946 55.1497 2.33653 56.175C2.34719 56.7242 2.65866 57.1486 3.18346 57.1787C4.27573 57.2434 5.37226 57.1981 6.49653 57.1981C6.49653 56.0996 6.51573 55.0743 6.48799 54.049C6.47093 53.4415 6.11466 53.0452 5.51519 53.0215C4.48053 52.9806 3.44373 53.0107 2.33013 53.0107H2.33226ZM46.1467 38.3873C47.192 38.5381 48.1947 38.6824 49.24 38.8332V32.2226C48.2928 32.998 47.3072 33.7993 46.3323 34.6157C46.2341 34.6975 46.1573 34.8677 46.1552 34.9991C46.1424 36.1148 46.1467 37.2306 46.1467 38.3873ZM35.7125 38.3873C35.7125 37.2155 35.7189 36.0998 35.704 34.984C35.704 34.8569 35.6144 34.6932 35.5141 34.6092C34.5413 33.7928 33.5579 32.9915 32.6235 32.2247V38.8396C33.6731 38.6867 34.6757 38.5402 35.7125 38.3895V38.3873ZM5.45973 59.3564C5.50239 60.1039 5.21866 60.9159 6.03999 61.2756C6.34506 61.4092 6.88266 61.3446 7.15573 61.1464C7.77866 60.6962 7.50986 59.9854 7.52053 59.3564H5.45973ZM17.944 59.3693H15.9344C15.8043 60.7953 16.1136 61.4221 16.9264 61.4286C17.7371 61.435 18.0464 60.8254 17.944 59.3693Z" fill="#7C8DC4"/>
</svg>
