<svg width="18" height="18" viewBox="0 0 18 18" fill="none" xmlns="http://www.w3.org/2000/svg">
<g clip-path="url(#clip0_216_84)">
<path d="M17.3409 6.80159L11.6521 1.11209C10.9481 0.410081 9.99438 0.0158691 9.00013 0.0158691C8.00588 0.0158691 7.0522 0.410081 6.34813 1.11209L0.659381 6.80159C0.4497 7.00993 0.283458 7.25781 0.170293 7.53088C0.0571275 7.80394 -0.00071073 8.09675 0.00013113 8.39234V15.7551C0.00013113 16.3518 0.237184 16.9241 0.659141 17.3461C1.0811 17.768 1.65339 18.0051 2.25013 18.0051H15.7501C16.3469 18.0051 16.9192 17.768 17.3411 17.3461C17.7631 16.9241 18.0001 16.3518 18.0001 15.7551V8.39234C18.001 8.09675 17.9431 7.80394 17.83 7.53088C17.7168 7.25781 17.5506 7.00993 17.3409 6.80159ZM11.2501 16.5051H6.75013V13.5546C6.75013 12.9579 6.98718 12.3856 7.40914 11.9636C7.8311 11.5416 8.40339 11.3046 9.00013 11.3046C9.59687 11.3046 10.1692 11.5416 10.5911 11.9636C11.0131 12.3856 11.2501 12.9579 11.2501 13.5546V16.5051ZM16.5001 15.7551C16.5001 15.954 16.4211 16.1448 16.2805 16.2854C16.1398 16.4261 15.949 16.5051 15.7501 16.5051H12.7501V13.5546C12.7501 12.56 12.355 11.6062 11.6518 10.9029C10.9485 10.1997 9.99469 9.80459 9.00013 9.80459C8.00557 9.80459 7.05174 10.1997 6.34848 10.9029C5.64522 11.6062 5.25013 12.56 5.25013 13.5546V16.5051H2.25013C2.05122 16.5051 1.86045 16.4261 1.7198 16.2854C1.57915 16.1448 1.50013 15.954 1.50013 15.7551V8.39234C1.50083 8.19357 1.57977 8.00308 1.71988 7.86209L7.40863 2.17484C7.83141 1.75404 8.40363 1.5178 9.00013 1.5178C9.59663 1.5178 10.1689 1.75404 10.5916 2.17484L16.2804 7.86434C16.4199 8.00477 16.4988 8.19435 16.5001 8.39234V15.7551Z" fill="white"/>
</g>
<defs>
<clipPath id="clip0_216_84">
<rect width="18" height="18" fill="white"/>
</clipPath>
</defs>
</svg>
