<svg width="64" height="64" viewBox="0 0 64 64" fill="none" xmlns="http://www.w3.org/2000/svg">
<path d="M34.2613 1.59573C35.4197 1.7152 36.5803 1.80693 37.7323 1.96053C43.9957 2.79467 49.8645 4.70613 55.0165 8.47573C57.9221 10.6005 60.3413 13.1691 61.5808 16.6229C62.0096 17.8155 62.1781 19.1104 62.3787 20.3712C62.4917 21.0795 62.0779 21.5424 61.4827 21.6043C60.9088 21.664 60.5141 21.3205 60.3733 20.6251C60.2197 19.8656 59.7803 19.296 59.1957 18.8288C57.8603 17.7579 56.2901 17.248 54.6283 16.992C51.9744 16.5824 49.3696 16.7509 46.9077 17.8923C46.1867 18.2251 45.5403 18.7477 44.9237 19.2619C44.4629 19.6437 44.2091 20.1771 44.2155 20.8299C44.2219 21.44 43.7845 21.8475 43.2149 21.8688C42.6773 21.8901 42.2016 21.5403 42.1547 20.9579C42.0779 19.9936 41.4741 19.4261 40.7595 18.9397C39.2064 17.8816 37.4379 17.3867 35.6117 17.0987C32.0171 16.5312 28.4715 16.6997 25.0411 18.0096C24.3648 18.2677 23.7205 18.6389 23.1147 19.04C22.4427 19.4816 21.9349 20.0661 21.8347 20.9408C21.7664 21.5339 21.3376 21.8773 20.8512 21.8603C20.3136 21.8432 19.9211 21.4869 19.8571 20.8768C19.7525 19.8592 19.1531 19.1765 18.3765 18.6219C16.7659 17.4699 14.912 17.0155 12.9771 16.8597C10.6155 16.6699 8.31146 16.928 6.15466 17.984C4.91946 18.5899 3.85066 19.3557 3.55413 20.8576C3.50079 21.1328 3.07626 21.4379 2.76479 21.5339C2.20159 21.7045 1.85386 21.3035 1.60213 20.8405C1.60213 20.4843 1.60213 20.128 1.60213 19.7717C1.70026 19.2725 1.78133 18.7691 1.89866 18.2741C2.71359 14.8224 4.69973 12.1045 7.33226 9.84107C12.8299 5.10933 19.3877 2.90347 26.4533 1.95627C27.5861 1.8048 28.7296 1.7152 29.8667 1.59573C31.3323 1.59573 32.7957 1.59573 34.2613 1.59573ZM41.8709 17.0539C41.3397 13.7387 40.5227 10.5003 38.5643 7.66293C37.5317 6.16747 36.2475 4.93013 34.528 4.29227C33.6235 3.95733 32.6059 3.65867 31.6693 3.72693C29.5083 3.88693 27.7525 4.99627 26.3232 6.60907C24.6165 8.53547 23.648 10.8395 22.9867 13.2821C22.6496 14.5237 22.4192 15.7952 22.1461 17.0325C28.7936 13.9648 35.3024 13.9605 41.8709 17.0539ZM25.8795 4.09173C20.6293 4.91307 15.7781 6.496 11.3899 9.33333C8.83626 10.9845 6.61759 12.9856 5.07946 15.6587C4.96853 15.8528 4.87679 16.0597 4.77439 16.2603C7.28959 15.0912 9.89013 14.6859 12.5952 14.7669C15.3387 14.848 17.7984 15.7376 20.0597 17.344C20.8192 12.3776 22.0693 7.72907 25.8752 4.096L25.8795 4.09173ZM59.2512 16.3221C59.1317 16.0747 59.0507 15.8848 58.9504 15.7035C57.9605 13.9371 56.6336 12.4523 55.0933 11.1573C51.4816 8.1216 47.2853 6.2464 42.7648 5.04533C41.2928 4.6528 39.7888 4.37547 38.2997 4.04693C38.2784 4.09387 38.2571 4.1408 38.2357 4.18773C40.0917 5.85173 41.3227 7.9232 42.2293 10.2101C43.1296 12.4757 43.6245 14.8416 43.9808 17.2715C48.9045 14.0181 53.9691 14.0992 59.2491 16.3243L59.2512 16.3221Z" fill="#6479BF"/>
<path d="M23.904 27.9531C23.904 26.9419 23.8976 26.0139 23.904 25.088C23.9189 23.1317 25.1392 21.8859 27.0827 21.8795C30.368 21.8667 33.6533 21.8667 36.9387 21.8795C38.8523 21.888 40.0811 23.1339 40.0981 25.0475C40.1067 25.9925 40.0981 26.9376 40.0981 27.9531H40.8533C45.2267 27.9531 49.6 27.9531 53.9733 27.9531C56.1173 27.9531 57.3248 29.152 57.3269 31.2917C57.3291 40.5525 57.3291 49.8155 57.3269 59.0763C57.3269 61.1755 56.1024 62.4043 54.0181 62.4043C39.3344 62.4043 24.6507 62.4043 9.96693 62.4043C7.92106 62.4043 6.67733 61.1669 6.6752 59.1168C6.67093 49.8347 6.67093 40.5547 6.6752 31.2725C6.6752 29.1648 7.88906 27.9552 9.98826 27.9531C14.3616 27.9509 18.7349 27.9531 23.1083 27.9531H23.904ZM15.7504 60.3541H48.2539C49.0304 56.4331 51.3749 54.1056 55.2661 53.3248V36.9984C53.4421 36.7125 51.8805 35.9595 50.5941 34.6731C49.2971 33.376 48.5632 31.7867 48.2752 30.0053H15.7205C15.4347 31.8101 14.6965 33.3781 13.4123 34.6688C12.1173 35.9723 10.5344 36.7168 8.74026 37.0091V53.3227C12.6571 54.1248 14.9696 56.4608 15.7483 60.3541H15.7504ZM38.0757 27.9296C38.0757 26.9248 38.0843 25.9776 38.0736 25.0304C38.0651 24.2688 37.7045 23.9147 36.9365 23.9061C35.9659 23.8955 34.9973 23.9019 34.0267 23.9019C31.7312 23.9019 29.4357 23.9083 27.1381 23.8976C26.56 23.8955 26.0267 24.0704 25.9797 24.6677C25.8965 25.7408 25.9563 26.8245 25.9563 27.9275H38.0757V27.9296ZM55.296 55.4347C52.7296 55.8741 50.4917 58.1547 50.4107 60.3733C51.7333 60.3733 53.056 60.3989 54.3765 60.3605C54.9035 60.3456 55.2747 59.9936 55.2853 59.4432C55.3109 58.1205 55.2939 56.7979 55.2939 55.4368L55.296 55.4347ZM55.2917 34.8843C55.2917 33.5424 55.3067 32.2027 55.2832 30.8629C55.2747 30.3957 54.9504 30.0331 54.5109 30.016C53.1413 29.9669 51.7696 29.9989 50.3915 29.9989C50.6347 32.3669 52.9813 34.7008 55.2917 34.8843ZM13.6021 60.3755C13.4229 58.0373 11.0677 55.6907 8.71253 55.4603C8.71253 56.8043 8.68906 58.144 8.7232 59.4837C8.73813 60.0341 9.13493 60.3541 9.664 60.3669C10.9653 60.3968 12.2667 60.3776 13.6 60.3776L13.6021 60.3755ZM8.7104 34.8928C11.1083 34.6325 13.4976 32.2197 13.5915 29.9861C12.2539 29.9861 10.9141 29.9605 9.57866 29.9989C9.0752 30.0139 8.72746 30.368 8.71893 30.8907C8.69333 32.2091 8.7104 33.5296 8.7104 34.8928Z" fill="#6479BF"/>
<path d="M26.8075 55.1701C26.3168 55.4304 25.8709 55.6779 25.4144 55.9061C24.3883 56.4224 23.3195 56.2709 22.5728 55.5157C21.8283 54.7627 21.6811 53.6683 22.2037 52.6656C22.4491 52.1963 22.7179 51.7397 22.9995 51.2363C22.6112 50.9824 22.2464 50.752 21.8923 50.5067C21.0005 49.888 20.6592 48.9493 20.9643 47.9723C21.2672 47.0059 22.0715 46.4597 23.1957 46.4853C24.3627 46.5131 25.5296 46.5792 26.6965 46.5792C26.9696 46.5792 27.3067 46.4427 27.5051 46.2549C28.0768 45.7088 28.5909 45.1051 29.1819 44.4651C28.9621 44.3093 28.7637 44.1621 28.5611 44.0235C26.5749 42.688 24.5888 41.3547 22.6027 40.0171C21.7301 39.4283 21.4677 38.7371 21.7899 37.9029C22.1099 37.0773 22.8949 36.6549 23.8507 36.7808C27.3003 37.2373 30.7499 37.6981 34.2037 38.1312C34.4256 38.1589 34.7456 38.0288 34.8992 37.8624C35.7163 36.9728 36.5013 36.0576 37.28 35.1339C37.9093 34.3893 38.6944 34.016 39.6651 34.0224C40.3371 34.0267 41.0112 34.0224 41.6832 34.0352C43.1531 34.0651 44.1195 35.0315 44.1451 36.5099C44.1579 37.2224 44.1451 37.9349 44.1451 38.6475C44.1451 39.5349 43.7931 40.2517 43.1168 40.8213C42.1952 41.6 41.2885 42.3979 40.3605 43.1701C40.096 43.392 39.9851 43.5968 40.0363 43.9723C40.4928 47.2832 40.9173 50.5984 41.3547 53.9115C41.5296 55.232 41.1179 56.0576 40.1323 56.3456C39.3536 56.5739 38.7179 56.3221 38.2037 55.5648C36.7787 53.472 35.3557 51.3771 33.9328 49.2843C33.8667 49.1861 33.7941 49.0923 33.6811 48.9344C32.9877 49.5765 32.3008 50.1931 31.6416 50.8395C31.5392 50.9397 31.5264 51.1637 31.5285 51.3301C31.5392 52.4779 31.5627 53.6256 31.5883 54.7733C31.616 56.0683 31.104 56.8896 30.0523 57.2224C29.0027 57.5531 28.0853 57.1605 27.392 56.0875C27.2021 55.7909 27.0123 55.4965 26.8032 55.1701H26.8075ZM39.2235 53.4208C39.2 53.1797 39.1936 53.0901 39.1829 53.0005C38.7669 49.8261 38.3595 46.6496 37.9307 43.4773C37.8539 42.9056 38.016 42.4896 38.464 42.1312C39.1424 41.5872 39.7931 41.0069 40.4544 40.4437C42.1717 38.9781 42.1611 38.9781 42.1333 36.7189C42.1269 36.2389 41.9776 36.0277 41.4827 36.0491C40.9301 36.0725 40.3669 35.9893 39.8251 36.0704C39.4517 36.1259 39.0187 36.2965 38.7712 36.5632C37.8112 37.5872 36.9088 38.6645 36 39.7376C35.6352 40.1685 35.2363 40.3307 34.6496 40.2475C32.1451 39.8912 29.6341 39.5819 27.1253 39.2576C26.4 39.1637 25.6725 39.0805 24.9451 38.9931C25.0859 39.2299 25.2544 39.3579 25.4293 39.4773C27.3152 40.7467 29.2053 42.0096 31.0891 43.2832C31.9147 43.84 31.9893 44.4203 31.328 45.1413C30.4043 46.1461 29.4613 47.1339 28.5419 48.1429C28.2091 48.5099 27.8315 48.6613 27.3365 48.6379C26.0331 48.5781 24.7275 48.5483 23.4219 48.512C23.2469 48.5077 23.0741 48.5376 22.8651 48.5525C22.9248 48.6869 22.9291 48.7381 22.9568 48.7552C23.5307 49.1413 24.1045 49.5253 24.6805 49.9072C25.4208 50.3979 25.5381 50.8331 25.12 51.5989C24.7701 52.2411 24.3925 52.8683 24.0619 53.5211C23.9829 53.6768 24.0448 53.9072 24.0427 54.1013C24.224 54.0885 24.4309 54.1269 24.5824 54.0523C25.184 53.7536 25.7685 53.4208 26.3595 53.1008C27.2533 52.6165 27.6437 52.7104 28.1835 53.5509C28.4928 54.0331 28.8064 54.5152 29.1051 55.0037C29.184 55.1317 29.2181 55.2875 29.2736 55.4304C29.3568 55.3728 29.4421 55.3131 29.5253 55.2555C29.536 55.0485 29.5573 54.8416 29.5552 54.6368C29.5403 53.3504 29.5317 52.064 29.4933 50.7797C29.4784 50.2848 29.6277 49.9115 29.9968 49.5787C30.9696 48.7083 31.9168 47.8101 32.8811 46.9291C33.7664 46.1184 34.2763 46.1739 34.9376 47.1488C36.2155 49.0304 37.4912 50.912 38.7691 52.7915C38.8885 52.9664 39.0165 53.1349 39.2256 53.4251L39.2235 53.4208Z" fill="#6479BF"/>
</svg>
