<svg width="59" height="64" viewBox="0 0 59 64" fill="none" xmlns="http://www.w3.org/2000/svg">
<g clip-path="url(#clip0_19_35)">
<path d="M39.7051 0.409607C39.7011 5.52321 39.6933 10.6368 39.707 15.7525C39.707 15.9957 39.8467 16.3072 40.0178 16.4693C41.1565 17.5445 42.4702 17.8176 43.9059 17.3333C44.962 16.9771 46.0063 16.5867 47.1017 16.1941C47.1233 16.48 47.141 16.7317 47.1627 17.0261C48.1362 15.9253 49.09 14.848 50.036 13.7771C50.567 14.3808 50.976 14.8437 51.4166 15.3451C51.3576 15.4155 51.2376 15.5627 51.1098 15.7013C49.8885 17.0283 48.6613 18.3467 47.4518 19.6864C47.2984 19.8571 47.1509 20.1259 47.1489 20.3499C47.0997 25.8901 45.0387 30.2976 40.8811 33.5381C40.8536 33.5595 40.8418 33.6021 40.7848 33.696C40.9736 33.7109 41.1289 33.7344 41.2843 33.7344C42.2421 33.7387 43.1998 33.7344 44.1576 33.7365C45.8588 33.7408 47.1961 34.496 48.1775 36.0085C49.0861 37.4059 50.0261 38.7797 50.917 40.192C51.2474 40.7147 51.6604 40.9344 52.219 41.0091C53.4658 41.1755 54.7127 41.3611 55.9517 41.5957C57.3913 41.8667 58.2861 43.0507 58.296 44.6379C58.3058 46.3701 58.3078 48.1024 58.296 49.8325C58.2822 51.5947 57.1199 52.8725 55.4876 52.9003C53.93 52.9259 52.3724 52.9067 50.7971 52.9067C50.7341 53.1051 50.681 53.2757 50.6279 53.4464C49.9888 55.552 48.2325 56.9408 46.2069 56.9472C44.191 56.9515 42.3994 55.5648 41.7858 53.4592C41.658 53.0219 41.4967 52.8683 41.0896 52.9003C40.6451 52.9365 40.1967 52.9088 39.707 52.9088V63.0165H0.590027C0.590027 46.3467 0.590027 29.6768 0.590027 13.0048C0.708027 12.9152 0.839794 12.8427 0.940094 12.7339C4.61186 8.75307 8.28166 4.77227 11.9495 0.78934C12.0498 0.68054 12.1167 0.537607 12.1993 0.409607C21.3679 0.409607 30.5365 0.409607 39.7031 0.409607H39.7051ZM33.1089 52.9301C33.0636 53.0645 33.0204 53.1755 32.9869 53.2907C32.3084 55.5392 30.6368 56.9173 28.558 56.9429C26.4792 56.9685 24.7368 55.5797 24.0602 53.3141C23.9521 52.9515 23.7869 52.8981 23.4938 52.9003C22.1408 52.9088 20.7897 52.9088 19.4366 52.9024C17.5584 52.8939 16.4217 51.6693 16.4079 49.6299C16.4001 48.3051 16.404 46.9803 16.4079 45.6555C16.4119 43.8635 17.11 42.848 18.6853 42.336C20.8762 41.6235 23.0631 40.896 25.2619 40.2091C25.8184 40.0341 26.2216 39.7376 26.5284 39.1979C27.1027 38.1952 27.7379 37.2331 28.3279 36.2411C29.3368 34.5408 30.7548 33.7003 32.6231 33.7301C33.8247 33.7515 35.0283 33.7344 36.23 33.7301C36.3873 33.7301 36.5446 33.7067 36.7354 33.6896C36.6784 33.5979 36.6626 33.5573 36.6371 33.5339C36.5643 33.4699 36.4876 33.4123 36.4109 33.3525C33.1561 30.7819 31.1147 27.36 30.5876 23.0251C30.3359 20.9579 30.4283 18.8395 30.3693 16.7445C30.3654 16.5739 30.387 16.4011 30.4008 16.1792C31.5021 16.5739 32.5464 16.9621 33.5986 17.3227C34.9674 17.7899 36.2241 17.5424 37.3726 16.5995C37.6991 16.3307 37.8269 16.0235 37.8249 15.5648C37.8072 11.4069 37.8151 7.25121 37.8131 3.09334C37.8131 2.89494 37.7954 2.69654 37.7856 2.47467H13.631C13.631 2.76481 13.631 3.00587 13.631 3.24481C13.631 6.79041 13.6192 10.336 13.6428 13.8816C13.6467 14.4341 13.4914 14.5579 13.0056 14.5536C9.71733 14.5301 6.43103 14.5408 3.14276 14.5429C2.92643 14.5429 2.71009 14.5429 2.50556 14.5429V60.9408H37.7679V52.9216H33.1089V52.9301ZM50.7971 50.9013C52.3704 50.9013 53.928 50.9163 55.4856 50.8928C56.0933 50.8843 56.4276 50.4811 56.4355 49.7771C56.4512 48.0853 56.4512 46.3957 56.4355 44.704C56.4296 43.9787 56.168 43.6651 55.5112 43.5563C54.2682 43.3493 53.0253 43.1424 51.7784 42.9717C50.803 42.8395 50.0576 42.3573 49.4951 41.4827C48.561 40.0299 47.5953 38.5984 46.6533 37.152C46.0299 36.1963 45.1881 35.7397 44.1104 35.7419C40.2597 35.7483 36.4089 35.7483 32.5582 35.7419C31.4333 35.7397 30.5679 36.224 29.9504 37.248C29.323 38.2869 28.6603 39.3024 28.0565 40.3563C27.5314 41.2715 26.8195 41.8283 25.8617 42.1248C23.6256 42.8139 21.4052 43.5627 19.179 44.2901C18.4572 44.5269 18.2841 44.7829 18.2841 45.6107C18.2822 46.9547 18.2802 48.3008 18.2841 49.6448C18.2881 50.5408 18.6145 50.8971 19.4504 50.9013C20.7464 50.9077 22.0424 50.8821 23.3385 50.9141C23.779 50.9248 23.9757 50.8011 24.1212 50.3189C24.9295 47.6267 27.6081 46.1952 30.0507 47.1445C31.6771 47.776 32.6526 49.0752 33.099 50.9035H33.6064C36.1041 50.9035 38.6037 50.8928 41.1014 50.9141C41.5085 50.9184 41.6658 50.7861 41.7917 50.3552C42.4033 48.2496 44.1891 46.8651 46.2128 46.8672C48.2325 46.8693 50.0006 48.2688 50.6338 50.368C50.685 50.5387 50.7381 50.7093 50.7971 50.9013ZM36.6803 23.8827C37.3765 24.6912 38.0491 25.4699 38.5703 26.0736C40.7985 23.6629 42.9638 21.3227 45.0544 19.0613C42.8773 20.0149 40.7199 19.7141 38.7571 18.0096C36.7806 19.7291 34.6193 20.0064 32.2593 18.976C32.2593 19.7269 32.2357 20.3968 32.2632 21.0645C32.4697 25.9648 34.515 29.7024 38.3264 32.3243C38.6313 32.5333 38.8574 32.5547 39.1819 32.3371C41.9844 30.4555 43.8744 27.8229 44.783 24.3819C44.9561 23.7227 45.0505 23.0379 45.1803 22.3659C45.1252 22.3424 45.0701 22.3189 45.0151 22.2955C42.9402 24.5547 40.8654 26.8117 38.8614 28.992C37.6912 27.7291 36.5545 26.5024 35.4708 25.3312C35.8268 24.9067 36.2162 24.4416 36.6843 23.8827H36.6803ZM11.7017 12.4928V4.22827C9.18633 6.95681 6.60016 9.76214 4.08283 12.4928H11.7017ZM48.9818 51.9211C48.9897 50.2443 47.7546 48.8853 46.2147 48.8747C44.6827 48.864 43.4221 50.2229 43.4181 51.8912C43.4142 53.5659 44.6532 54.9291 46.1872 54.9376C47.7192 54.9461 48.974 53.5915 48.9818 51.9211ZM25.728 51.8827C25.7201 53.5531 26.9611 54.9248 28.4931 54.9376C30.0232 54.9504 31.2858 53.6 31.3015 51.9296C31.3172 50.2656 30.0723 48.8896 28.5364 48.8747C27.0063 48.8597 25.7358 50.2208 25.728 51.8827Z" fill="#6479BF"/>
<path d="M15.519 4.46719H35.931V14.5131H15.519V4.46719ZM17.3991 6.51093V12.4928H34.0509V6.50879H17.3991V6.51093Z" fill="#6479BF"/>
<path d="M4.33844 58.9781V56.9536C4.77504 56.9536 5.18804 56.9109 5.59121 56.9643C6.15564 57.0389 6.44277 56.7573 6.66697 56.2347C7.00524 55.4432 7.33367 54.6325 7.79387 53.9264C8.06331 53.5125 8.54121 53.1691 8.99157 53.0069C9.77627 52.7253 10.5 53.0453 10.9779 53.7643C11.3673 54.3531 11.6485 55.0272 11.9691 55.6693C12.1795 56.0896 12.3782 56.5205 12.6673 57.1243C12.9092 56.6891 13.0763 56.416 13.2179 56.128C13.568 55.4112 13.8414 54.6389 14.2583 53.9733C15.1512 52.5461 16.7225 52.5312 17.6272 53.9541C18.0697 54.6496 18.3903 55.4432 18.7128 56.2219C18.9429 56.7808 19.2556 57.0432 19.8338 56.9664C20.2173 56.9152 20.6126 56.9557 21.0413 56.9557V58.8843C18.6636 59.1552 17.9576 59.1061 16.9526 56.896C16.6517 56.2347 16.3607 55.5712 16.0657 54.9077C15.9968 54.912 15.926 54.9184 15.8572 54.9227C15.6527 55.3451 15.4501 55.7696 15.2436 56.1899C14.9447 56.8 14.7008 57.4507 14.335 58.0075C13.4815 59.3024 11.9809 59.328 11.0979 58.0565C10.7203 57.5104 10.4744 56.8576 10.1735 56.2496C9.95524 55.8101 9.74481 55.3664 9.45374 54.7648C9.19217 55.2597 9.00141 55.5968 8.83227 55.9445C8.51761 56.5909 8.25211 57.2672 7.90007 57.888C7.47921 58.6325 6.83611 59.008 6.01011 58.9845C5.46927 58.9696 4.92844 58.9824 4.34434 58.9824L4.33844 58.9781Z" fill="#6479BF"/>
<path d="M25.6965 18.5643H4.35223V16.5952H25.6965V18.5643Z" fill="#6479BF"/>
<path d="M25.7004 24.6827V26.6347H4.34045V24.6827H25.7024H25.7004Z" fill="#6479BF"/>
<path d="M25.6965 28.7168V30.6773H4.35815V28.7168H25.6985H25.6965Z" fill="#6479BF"/>
<path d="M4.33649 34.7029V32.7488H25.6965V34.7029H4.33649Z" fill="#6479BF"/>
<path d="M4.35028 20.6293H15.4482V22.5835H4.35028V20.6293Z" fill="#6479BF"/>
<path d="M17.3814 22.5899V20.64H25.6807V22.5899H17.3814Z" fill="#6479BF"/>
<path d="M24.7584 58.9504H22.9569V57.0069H24.7584V58.9504Z" fill="#6479BF"/>
<path d="M47.6091 43.7888H28.9297C28.9985 43.6096 29.0497 43.4432 29.1205 43.2875C29.8993 41.5936 30.6899 39.9061 31.4569 38.2059C31.6004 37.8859 31.7715 37.7664 32.1 37.7664C36.2339 37.7771 40.3659 37.7707 44.4998 37.7856C44.6827 37.7856 44.96 37.9136 45.0347 38.0715C45.9099 39.9168 46.7556 41.7792 47.6071 43.6373C47.6209 43.6693 47.6071 43.7141 47.6071 43.7888H47.6091ZM31.9112 41.7621H44.6709C44.3975 41.1648 44.1733 40.6272 43.9 40.1173C43.8174 39.9637 43.5991 39.8016 43.4437 39.7995C40.006 39.7824 36.5682 39.7824 33.1305 39.7995C32.983 39.7995 32.7765 39.936 32.7037 40.0725C32.4264 40.5995 32.1924 41.1541 31.9131 41.7621H31.9112Z" fill="#6479BF"/>
<path d="M47.0977 52.8747H45.2982V50.9419H47.0977V52.8747Z" fill="#6479BF"/>
<path d="M27.614 52.8704V50.9376H29.4036V52.8704H27.614Z" fill="#6479BF"/>
<path d="M21.1082 8.51627H22.8939V10.464H21.1082V8.51627Z" fill="#6479BF"/>
<path d="M24.843 8.50562H26.6071V10.4747H24.843V8.50562Z" fill="#6479BF"/>
<path d="M28.5698 8.50348H30.326V10.4725H28.5698V8.50348Z" fill="#6479BF"/>
</g>
<defs>
<clipPath id="clip0_19_35">
<rect width="59" height="64" fill="white"/>
</clipPath>
</defs>
</svg>
