<svg width="15" height="15" viewBox="0 0 15 15" fill="none" xmlns="http://www.w3.org/2000/svg">
<g clip-path="url(#clip0_211_54)">
<path d="M4.69066 14.9998C3.55925 14.999 2.46629 14.5891 1.61344 13.8457C0.760596 13.1022 0.205429 12.0754 0.0503836 10.9546C-0.104662 9.8339 0.150876 8.69491 0.769845 7.74783C1.38881 6.80075 2.32944 6.10951 3.41816 5.80164C4.20949 5.57503 5.04709 5.56467 5.84378 5.77164L10.7863 0.830393C11.0487 0.566195 11.3609 0.356727 11.7049 0.21414C12.0488 0.0715538 12.4177 -0.00131277 12.79 -0.000232299C13.376 0.000264221 13.9378 0.233262 14.3522 0.64761C14.7665 1.06196 14.9995 1.62379 15 2.20977C15.001 2.58214 14.9281 2.951 14.7857 3.29504C14.6432 3.63908 14.434 3.95147 14.17 4.21414L13.75 4.63414C13.515 4.86754 13.1975 4.99891 12.8663 4.99977H11.875V5.62477C11.875 5.95629 11.7433 6.27423 11.5089 6.50865C11.2745 6.74307 10.9566 6.87477 10.625 6.87477H10V7.86602C10.0005 8.03023 9.96833 8.19289 9.90547 8.34459C9.8426 8.49629 9.75025 8.63401 9.63378 8.74977L9.22753 9.15602C9.43563 9.95233 9.42549 10.79 9.19816 11.581C8.94235 12.4823 8.42335 13.2867 7.70762 13.8911C6.99189 14.4956 6.112 14.8727 5.18066 14.9741C5.01787 14.9911 4.85432 14.9996 4.69066 14.9998ZM4.69066 6.87477C4.05075 6.87415 3.42337 7.05216 2.87915 7.38876C2.33492 7.72536 1.89546 8.20719 1.61022 8.78001C1.32498 9.35283 1.2053 9.99389 1.26464 10.631C1.32398 11.2682 1.55999 11.8761 1.94611 12.3864C2.33222 12.8967 2.85311 13.2891 3.45013 13.5194C4.04715 13.7497 4.69661 13.8088 5.3254 13.69C5.95419 13.5712 6.53733 13.2793 7.0092 12.8471C7.48107 12.4149 7.82293 11.8595 7.99628 11.2435C8.19128 10.5664 8.16942 9.84513 7.93378 9.18102C7.89533 9.07011 7.88888 8.95061 7.91519 8.8362C7.9415 8.7218 7.99949 8.61712 8.08253 8.53414L8.75003 7.86602V6.87477C8.75003 6.54325 8.88173 6.22531 9.11615 5.99088C9.35057 5.75646 9.66851 5.62477 10 5.62477H10.625V4.99977C10.625 4.66825 10.7567 4.3503 10.9911 4.11588C11.2256 3.88146 11.5435 3.74977 11.875 3.74977H12.8663L13.2863 3.32977C13.4338 3.18299 13.5507 3.00843 13.6303 2.81619C13.7099 2.62395 13.7506 2.41784 13.75 2.20977C13.7499 1.95532 13.6488 1.71133 13.4689 1.53135C13.289 1.35137 13.0451 1.2501 12.7907 1.24977C12.5824 1.24926 12.3762 1.29003 12.1838 1.36974C11.9915 1.44945 11.8169 1.56651 11.67 1.71414L6.46316 6.92039C6.38006 7.00344 6.27524 7.06139 6.16071 7.08759C6.04619 7.11379 5.9266 7.10718 5.81566 7.06852C5.4532 6.9409 5.0718 6.8754 4.68753 6.87477H4.69066ZM3.12503 11.2498C3.12503 11.3734 3.16169 11.4942 3.23036 11.597C3.29904 11.6998 3.39665 11.7799 3.51085 11.8272C3.62506 11.8745 3.75073 11.8869 3.87196 11.8628C3.9932 11.8386 4.10457 11.7791 4.19197 11.6917C4.27938 11.6043 4.33891 11.4929 4.36302 11.3717C4.38714 11.2505 4.37476 11.1248 4.32746 11.0106C4.28015 10.8964 4.20004 10.7988 4.09726 10.7301C3.99448 10.6614 3.87365 10.6248 3.75003 10.6248C3.58427 10.6248 3.4253 10.6906 3.30809 10.8078C3.19088 10.925 3.12503 11.084 3.12503 11.2498Z" fill="#7C7C7C"/>
</g>
<defs>
<clipPath id="clip0_211_54">
<rect width="15" height="15" fill="white"/>
</clipPath>
</defs>
</svg>
