<svg width="18" height="18" viewBox="0 0 18 18" fill="currentColor" xmlns="http://www.w3.org/2000/svg">
<g clip-path="url(#clip0_216_88)">
<path d="M17.3392 0.653599C17.1048 0.419741 16.8215 0.240792 16.5096 0.129646C16.1976 0.0185012 15.865 -0.0220724 15.5355 0.0108491C13.4407 0.213349 6.396 1.0856 3.675 3.8036C2.37433 5.10781 1.60305 6.84772 1.51011 8.68731C1.41717 10.5269 2.00916 12.3357 3.17176 13.7643L0.216759 16.7193C0.0801408 16.8608 0.00454513 17.0503 0.00625394 17.2469C0.00796275 17.4435 0.0868394 17.6317 0.225895 17.7707C0.364951 17.9098 0.55306 17.9886 0.749708 17.9904C0.946355 17.9921 1.13581 17.9165 1.27726 17.7799L4.23225 14.8248C5.66063 15.989 7.4699 16.5822 9.31028 16.4898C11.1506 16.3974 12.8914 15.626 14.196 14.3246C16.953 11.5668 17.796 4.54385 17.9902 2.45735C18.022 2.12725 17.9801 1.79422 17.8675 1.4823C17.7549 1.17037 17.5745 0.887329 17.3392 0.653599ZM13.1392 13.2611C12.1166 14.28 10.7582 14.8919 9.31746 14.9825C7.87676 15.0732 6.4523 14.6365 5.31 13.7538L12.534 6.52985C12.6706 6.3884 12.7462 6.19895 12.7445 6.0023C12.7428 5.80565 12.6639 5.61754 12.5249 5.47849C12.3858 5.33943 12.1977 5.26055 12.001 5.25884C11.8044 5.25713 11.6149 5.33273 11.4735 5.46935L4.24575 12.6933C3.36299 11.5511 2.92615 10.1266 3.01683 8.68587C3.10751 7.24513 3.71949 5.88664 4.7385 4.8641C6.62025 2.9831 11.8087 1.8746 15.6802 1.50335C15.7899 1.49268 15.9005 1.5063 16.0043 1.54323C16.1081 1.58017 16.2025 1.63952 16.2808 1.71706C16.359 1.7946 16.4192 1.88843 16.4571 1.99188C16.495 2.09533 16.5097 2.20586 16.5 2.3156C16.125 6.35585 15.0442 11.3523 13.1355 13.2611H13.1392Z"/>
</g>
<defs>
<clipPath id="clip0_216_88">
<rect width="18" height="18" fill="white"/>
</clipPath>
</defs>
</svg>
