<svg width="15" height="15" viewBox="0 0 15 15" fill="currentColor" xmlns="http://www.w3.org/2000/svg">
<g clip-path="url(#clip0_211_42)">
<path d="M4.375 13.75H3.125C2.62772 13.75 2.15081 13.5525 1.79917 13.2008C1.44754 12.8492 1.25 12.3723 1.25 11.875V3.125C1.25 2.62772 1.44754 2.15081 1.79917 1.79917C2.15081 1.44754 2.62772 1.25 3.125 1.25H4.375C4.54076 1.25 4.69973 1.18415 4.81694 1.06694C4.93415 0.949732 5 0.79076 5 0.625C5 0.45924 4.93415 0.300269 4.81694 0.183058C4.69973 0.065848 4.54076 0 4.375 0L3.125 0C2.2965 0.000992411 1.50222 0.330551 0.916387 0.916387C0.330551 1.50222 0.000992411 2.2965 0 3.125L0 11.875C0.000992411 12.7035 0.330551 13.4978 0.916387 14.0836C1.50222 14.6694 2.2965 14.999 3.125 15H4.375C4.54076 15 4.69973 14.9342 4.81694 14.8169C4.93415 14.6997 5 14.5408 5 14.375C5 14.2092 4.93415 14.0503 4.81694 13.9331C4.69973 13.8158 4.54076 13.75 4.375 13.75Z" />
<path d="M14.3749 6.87511L4.51429 6.89511C4.56911 6.79329 4.63767 6.6995 4.71804 6.61636L7.14242 4.19199C7.20211 4.13433 7.24972 4.06537 7.28248 3.98911C7.31523 3.91286 7.33248 3.83085 7.3332 3.74786C7.33392 3.66488 7.3181 3.58258 7.28668 3.50577C7.25525 3.42896 7.20885 3.35917 7.15016 3.30049C7.09148 3.24181 7.0217 3.1954 6.94489 3.16397C6.86808 3.13255 6.78578 3.11673 6.70279 3.11746C6.6198 3.11818 6.53779 3.13542 6.46154 3.16817C6.38529 3.20093 6.31632 3.24854 6.25867 3.30824L3.83304 5.73261C3.36436 6.20143 3.10107 6.8372 3.10107 7.50011C3.10107 8.16302 3.36436 8.79879 3.83304 9.26761L6.25742 11.692C6.31507 11.7517 6.38404 11.7993 6.46029 11.832C6.53654 11.8648 6.61855 11.882 6.70154 11.8828C6.78453 11.8835 6.86683 11.8677 6.94364 11.8363C7.02045 11.8048 7.09023 11.7584 7.14891 11.6997C7.20759 11.6411 7.254 11.5713 7.28543 11.4945C7.31685 11.4176 7.33267 11.3353 7.33195 11.2524C7.33123 11.1694 7.31398 11.0874 7.28123 11.0111C7.24847 10.9349 7.20086 10.8659 7.14117 10.8082L4.71679 8.38386C4.64684 8.31183 4.58578 8.23168 4.53492 8.14511L14.3749 8.12511C14.5407 8.12511 14.6996 8.05926 14.8169 7.94205C14.9341 7.82484 14.9999 7.66587 14.9999 7.50011C14.9999 7.33435 14.9341 7.17538 14.8169 7.05817C14.6996 6.94096 14.5407 6.87511 14.3749 6.87511Z" />
</g>
<defs>
<clipPath id="clip0_211_42">
<rect width="15" height="15"/>
</clipPath>
</defs>
</svg>
