<svg width="30" height="30" viewBox="0 0 30 30" fill="none" xmlns="http://www.w3.org/2000/svg">
<circle cx="15" cy="15" r="15" fill="#E22D3A"/>
<g clip-path="url(#clip0_216_144)">
<path d="M15.6943 16.75C15.5396 16.75 15.3913 16.8115 15.2819 16.9209C15.1725 17.0303 15.111 17.1786 15.111 17.3333V19.0833C15.111 19.5475 14.9266 19.9926 14.5984 20.3208C14.2702 20.649 13.8251 20.8333 13.361 20.8333H11.9167C11.4525 20.8333 11.0074 20.649 10.6792 20.3208C10.351 19.9926 10.1667 19.5475 10.1667 19.0833V10.9167C10.1667 10.4525 10.351 10.0074 10.6792 9.67923C11.0074 9.35104 11.4525 9.16667 11.9167 9.16667H13.361C13.8251 9.16667 14.2702 9.35104 14.5984 9.67923C14.9266 10.0074 15.111 10.4525 15.111 10.9167V12.6667C15.111 12.8214 15.1725 12.9697 15.2819 13.0791C15.3913 13.1885 15.5396 13.25 15.6943 13.25C15.849 13.25 15.9974 13.1885 16.1068 13.0791C16.2162 12.9697 16.2777 12.8214 16.2777 12.6667V10.9167C16.2767 10.1434 15.9692 9.40208 15.4224 8.85529C14.8756 8.30851 14.1343 8.00093 13.361 8H11.9167C11.1434 8.00093 10.4021 8.30851 9.85529 8.85529C9.30851 9.40208 9.00093 10.1434 9 10.9167L9 19.0833C9.00093 19.8566 9.30851 20.5979 9.85529 21.1447C10.4021 21.6915 11.1434 21.9991 11.9167 22H13.361C14.1343 21.9991 14.8756 21.6915 15.4224 21.1447C15.9692 20.5979 16.2767 19.8566 16.2777 19.0833V17.3333C16.2777 17.1786 16.2162 17.0303 16.1068 16.9209C15.9974 16.8115 15.849 16.75 15.6943 16.75Z" fill="white"/>
<path d="M22.3392 13.7629L19.664 11.0878C19.6102 11.032 19.5458 10.9876 19.4747 10.957C19.4035 10.9265 19.3269 10.9104 19.2495 10.9097C19.172 10.909 19.0952 10.9238 19.0235 10.9531C18.9518 10.9824 18.8867 11.0258 18.8319 11.0805C18.7772 11.1353 18.7339 11.2004 18.7045 11.2721C18.6752 11.3438 18.6604 11.4206 18.6611 11.4981C18.6618 11.5755 18.6779 11.6521 18.7084 11.7232C18.739 11.7944 18.7835 11.8588 18.8392 11.9126L21.3253 14.3993L12.5001 14.4168C12.3454 14.4168 12.197 14.4783 12.0876 14.5877C11.9782 14.6971 11.9167 14.8455 11.9167 15.0002C11.9167 15.1549 11.9782 15.3033 12.0876 15.4126C12.197 15.522 12.3454 15.5835 12.5001 15.5835L21.3597 15.5654L18.838 18.0878C18.7823 18.1416 18.7378 18.2059 18.7073 18.2771C18.6767 18.3483 18.6606 18.4248 18.6599 18.5023C18.6593 18.5797 18.674 18.6565 18.7034 18.7282C18.7327 18.7999 18.776 18.865 18.8308 18.9198C18.8855 18.9746 18.9507 19.0179 19.0224 19.0472C19.094 19.0766 19.1709 19.0913 19.2483 19.0907C19.3258 19.09 19.4023 19.0739 19.4735 19.0433C19.5447 19.0127 19.609 18.9683 19.6628 18.9126L22.338 16.2374C22.6662 15.9094 22.8507 15.4644 22.851 15.0004C22.8512 14.5364 22.6671 14.0912 22.3392 13.7629Z" fill="white"/>
</g>
<defs>
<clipPath id="clip0_216_144">
<rect width="14" height="14" fill="white" transform="translate(9 8)"/>
</clipPath>
</defs>
</svg>
