<svg width="14" height="14" viewBox="0 0 14 14" fill="none" xmlns="http://www.w3.org/2000/svg">
<g clip-path="url(#clip0_216_59)">
<path d="M11.0833 11.6668H2.91667C2.1434 11.6659 1.40208 11.3583 0.855295 10.8115C0.308514 10.2648 0.00092625 9.52343 0 8.75016L0 5.25016C0.00092625 4.4769 0.308514 3.73557 0.855295 3.18879C1.40208 2.64201 2.1434 2.33442 2.91667 2.3335H11.0833C11.8566 2.33442 12.5979 2.64201 13.1447 3.18879C13.6915 3.73557 13.9991 4.4769 14 5.25016V8.75016C13.9991 9.52343 13.6915 10.2648 13.1447 10.8115C12.5979 11.3583 11.8566 11.6659 11.0833 11.6668ZM2.91667 3.50016C2.45254 3.50016 2.00742 3.68454 1.67923 4.01273C1.35104 4.34091 1.16667 4.78603 1.16667 5.25016V8.75016C1.16667 9.21429 1.35104 9.65941 1.67923 9.9876C2.00742 10.3158 2.45254 10.5002 2.91667 10.5002H11.0833C11.5475 10.5002 11.9926 10.3158 12.3208 9.9876C12.649 9.65941 12.8333 9.21429 12.8333 8.75016V5.25016C12.8333 4.78603 12.649 4.34091 12.3208 4.01273C11.9926 3.68454 11.5475 3.50016 11.0833 3.50016H2.91667ZM7 9.3335C6.53851 9.3335 6.08738 9.19665 5.70367 8.94026C5.31995 8.68387 5.02088 8.31945 4.84428 7.89309C4.66768 7.46673 4.62147 6.99757 4.7115 6.54495C4.80153 6.09233 5.02376 5.67657 5.35008 5.35025C5.67641 5.02392 6.09217 4.8017 6.54479 4.71166C6.99741 4.62163 7.46657 4.66784 7.89293 4.84444C8.31929 5.02105 8.68371 5.32012 8.94009 5.70383C9.19649 6.08755 9.33333 6.53867 9.33333 7.00016C9.33333 7.619 9.0875 8.21249 8.64992 8.65008C8.21233 9.08766 7.61884 9.3335 7 9.3335ZM7 5.8335C6.76925 5.8335 6.54369 5.90192 6.35183 6.03011C6.15998 6.15831 6.01044 6.34052 5.92214 6.5537C5.83384 6.76688 5.81073 7.00146 5.85575 7.22777C5.90077 7.45408 6.01188 7.66196 6.17504 7.82512C6.3382 7.98828 6.54608 8.0994 6.77239 8.14441C6.99871 8.18943 7.23328 8.16632 7.44646 8.07802C7.65964 7.98972 7.84185 7.84019 7.97005 7.64833C8.09824 7.45647 8.16667 7.23091 8.16667 7.00016C8.16667 6.69074 8.04375 6.394 7.82496 6.1752C7.60616 5.95641 7.30942 5.8335 7 5.8335ZM2.91667 4.66683C2.80129 4.66683 2.68851 4.70104 2.59258 4.76514C2.49666 4.82924 2.42189 4.92034 2.37774 5.02693C2.33359 5.13352 2.32203 5.25081 2.34454 5.36397C2.36705 5.47712 2.42261 5.58106 2.50419 5.66264C2.58577 5.74422 2.68971 5.79978 2.80286 5.82229C2.91602 5.8448 3.03331 5.83324 3.1399 5.78909C3.24649 5.74494 3.33759 5.67017 3.40169 5.57425C3.46579 5.47832 3.5 5.36554 3.5 5.25016C3.5 5.09545 3.43854 4.94708 3.32915 4.83768C3.21975 4.72829 3.07138 4.66683 2.91667 4.66683ZM10.5 5.25016C10.5 5.36554 10.5342 5.47832 10.5983 5.57425C10.6624 5.67017 10.7535 5.74494 10.8601 5.78909C10.9667 5.83324 11.084 5.8448 11.1971 5.82229C11.3103 5.79978 11.4142 5.74422 11.4958 5.66264C11.5774 5.58106 11.6329 5.47712 11.6555 5.36397C11.678 5.25081 11.6664 5.13352 11.6223 5.02693C11.5781 4.92034 11.5033 4.82924 11.4074 4.76514C11.3115 4.70104 11.1987 4.66683 11.0833 4.66683C10.9286 4.66683 10.7802 4.72829 10.6709 4.83768C10.5615 4.94708 10.5 5.09545 10.5 5.25016ZM2.91667 8.16683C2.80129 8.16683 2.68851 8.20104 2.59258 8.26514C2.49666 8.32924 2.42189 8.42034 2.37774 8.52693C2.33359 8.63352 2.32203 8.75081 2.34454 8.86397C2.36705 8.97712 2.42261 9.08106 2.50419 9.16264C2.58577 9.24422 2.68971 9.29978 2.80286 9.32229C2.91602 9.3448 3.03331 9.33324 3.1399 9.28909C3.24649 9.24494 3.33759 9.17017 3.40169 9.07425C3.46579 8.97832 3.5 8.86553 3.5 8.75016C3.5 8.59545 3.43854 8.44708 3.32915 8.33768C3.21975 8.22829 3.07138 8.16683 2.91667 8.16683ZM10.5 8.75016C10.5 8.86553 10.5342 8.97832 10.5983 9.07425C10.6624 9.17017 10.7535 9.24494 10.8601 9.28909C10.9667 9.33324 11.084 9.3448 11.1971 9.32229C11.3103 9.29978 11.4142 9.24422 11.4958 9.16264C11.5774 9.08106 11.6329 8.97712 11.6555 8.86397C11.678 8.75081 11.6664 8.63352 11.6223 8.52693C11.5781 8.42034 11.5033 8.32924 11.4074 8.26514C11.3115 8.20104 11.1987 8.16683 11.0833 8.16683C10.9286 8.16683 10.7802 8.22829 10.6709 8.33768C10.5615 8.44708 10.5 8.59545 10.5 8.75016Z" fill="white"/>
</g>
<defs>
<clipPath id="clip0_216_59">
<rect width="14" height="14" fill="white"/>
</clipPath>
</defs>
</svg>
