<svg width="15" height="15" viewBox="0 0 15 15" fill="none" xmlns="http://www.w3.org/2000/svg">
<g clip-path="url(#clip0_6_45)">
<path d="M11.1503 15C12.4923 15 13.3742 14.6405 14.1488 13.7685C14.2101 13.7073 14.2715 13.6385 14.3252 13.5773C14.7853 13.0648 15 12.5599 15 12.078C15 11.5273 14.6779 11.0148 13.9954 10.5405L11.7638 8.99539C11.0736 8.52117 10.2684 8.46763 9.62422 9.10248L9.03375 9.69147C8.85735 9.8674 8.704 9.87507 8.53529 9.76798C8.12117 9.50791 7.28529 8.78122 6.71779 8.21519C6.11963 7.6262 5.54449 6.96838 5.23773 6.48648C5.13803 6.31055 5.1457 6.16521 5.3221 5.98929L5.9049 5.4003C6.54908 4.75776 6.4954 3.94698 6.01993 3.26619L4.47086 1.04029C3.99539 0.359511 3.4816 0.0458957 2.92945 0.0382466C2.44632 0.0305975 1.94019 0.252423 1.42638 0.711373C1.35736 0.772565 1.29601 0.82611 1.23466 0.879655C0.360429 1.65987 0 2.53952 0 3.86282C0 6.05047 1.3497 8.71238 3.82668 11.1831C6.28833 13.6385 8.96471 15 11.1503 15ZM11.158 13.822C9.20246 13.8603 6.69479 12.361 4.70858 10.3876C2.70705 8.39876 1.13497 5.81336 1.17331 3.86282C1.18865 3.02142 1.48773 2.29475 2.08589 1.7746C2.13957 1.72871 2.17791 1.69046 2.23159 1.65222C2.46166 1.45334 2.70705 1.34625 2.92945 1.34625C3.15185 1.34625 3.35121 1.43039 3.49693 1.65987L4.98465 3.88576C5.1457 4.1229 5.16106 4.39062 4.92331 4.62774L4.24847 5.30085C3.71932 5.82865 3.75767 6.47119 4.14111 6.98367C4.57822 7.57266 5.33743 8.42937 5.92792 9.01072C6.51073 9.59967 7.43864 10.4258 8.0368 10.8695C8.55062 11.2519 9.1948 11.2902 9.72392 10.7624L10.3988 10.0892C10.6365 9.85211 10.8972 9.8674 11.1426 10.0204L13.3742 11.5043C13.6043 11.6573 13.6887 11.8485 13.6887 12.078C13.6887 12.2998 13.5813 12.5446 13.3819 12.7741C13.3359 12.8276 13.3052 12.8659 13.2592 12.9194C12.7377 13.516 12.0092 13.8067 11.158 13.822Z" fill="#1D2E66"/>
</g>
<defs>
<clipPath id="clip0_6_45">
<rect width="15" height="15" fill="white"/>
</clipPath>
</defs>
</svg>
