<svg viewBox="0 0 50 50" fill="none" xmlns="http://www.w3.org/2000/svg">
<g clip-path="url(#clip0_23_31)">
<path d="M27.0833 2.08336C27.0833 1.53083 27.3028 1.00093 27.6935 0.610225C28.0842 0.219525 28.6141 3.11173e-05 29.1667 3.11173e-05C34.6902 0.00609694 39.9857 2.20298 43.8914 6.10867C47.7971 10.0144 49.9939 15.3099 50 20.8334C50 21.3859 49.7805 21.9158 49.3898 22.3065C48.9991 22.6972 48.4692 22.9167 47.9167 22.9167C47.3641 22.9167 46.8342 22.6972 46.4435 22.3065C46.0528 21.9158 45.8333 21.3859 45.8333 20.8334C45.8284 16.4146 44.0708 12.1783 40.9463 9.05373C37.8218 5.9292 33.5854 4.17166 29.1667 4.1667C28.6141 4.1667 28.0842 3.9472 27.6935 3.5565C27.3028 3.1658 27.0833 2.6359 27.0833 2.08336ZM29.1667 12.5C31.3768 12.5 33.4964 13.378 35.0592 14.9408C36.622 16.5036 37.5 18.6232 37.5 20.8334C37.5 21.3859 37.7195 21.9158 38.1102 22.3065C38.5009 22.6972 39.0308 22.9167 39.5833 22.9167C40.1359 22.9167 40.6658 22.6972 41.0565 22.3065C41.4472 21.9158 41.6667 21.3859 41.6667 20.8334C41.6634 17.5192 40.3453 14.3417 38.0019 11.9982C35.6584 9.6547 32.4809 8.33667 29.1667 8.33336C28.6141 8.33336 28.0842 8.55286 27.6935 8.94356C27.3028 9.33426 27.0833 9.86416 27.0833 10.4167C27.0833 10.9692 27.3028 11.4991 27.6935 11.8898C28.0842 12.2805 28.6141 12.5 29.1667 12.5ZM48.1104 34.8729C49.3177 36.0836 49.9957 37.7236 49.9957 39.4334C49.9957 41.1431 49.3177 42.7831 48.1104 43.9938L46.2146 46.1792C29.1521 62.5146 -12.3687 21.0042 3.71459 3.88753L6.11043 1.8042C7.32245 0.630609 8.94779 -0.0186166 10.6348 -0.0030213C12.3218 0.012574 13.9349 0.691736 15.125 1.88753C15.1896 1.95211 19.05 6.9667 19.05 6.9667C20.1955 8.17009 20.8331 9.76863 20.8304 11.43C20.8277 13.0914 20.1848 14.6879 19.0354 15.8875L16.6229 18.9209C17.958 22.1648 19.921 25.113 22.399 27.5961C24.877 30.0791 27.8212 32.048 31.0625 33.3896L34.1146 30.9625C35.3144 29.814 36.9106 29.1719 38.5715 29.1696C40.2324 29.1672 41.8303 29.8049 43.0333 30.95C43.0333 30.95 48.0458 34.8084 48.1104 34.8729ZM45.2438 37.9021C45.2438 37.9021 40.2583 34.0667 40.1938 34.0021C39.7646 33.5766 39.1846 33.3378 38.5802 33.3378C37.9758 33.3378 37.3959 33.5766 36.9667 34.0021C36.9104 34.0604 32.7083 37.4084 32.7083 37.4084C32.4252 37.6338 32.0882 37.7815 31.7305 37.837C31.3729 37.8926 31.0069 37.854 30.6688 37.725C26.4697 36.1616 22.6557 33.7141 19.4851 30.5481C16.3145 27.3822 13.8613 23.5718 12.2917 19.375C12.1525 19.0322 12.1071 18.6585 12.1602 18.2924C12.2133 17.9263 12.363 17.5809 12.5938 17.2917C12.5938 17.2917 15.9417 13.0875 15.9979 13.0334C16.4235 12.6042 16.6623 12.0242 16.6623 11.4198C16.6623 10.8154 16.4235 10.2355 15.9979 9.80628C15.9333 9.74378 12.0979 4.7542 12.0979 4.7542C11.6623 4.36359 11.0938 4.1544 10.5089 4.1695C9.92395 4.18461 9.36698 4.42287 8.9521 4.83545L6.55626 6.91878C-5.19791 21.0521 30.7833 55.0375 43.1688 43.3334L45.0667 41.1459C45.5114 40.7339 45.7786 40.1651 45.8116 39.5598C45.8447 38.9545 45.641 38.36 45.2438 37.9021Z" fill="white"/>
</g>
<defs>
<clipPath id="clip0_23_31">
<rect width="50" height="50" fill="white"/>
</clipPath>
</defs>
</svg>
