<svg width="24" height="24" viewBox="0 0 24 24" fill="none" xmlns="http://www.w3.org/2000/svg">
<g clip-path="url(#clip0_216_274)">
<path d="M21.2611 2.73897C19.5446 1.0795 17.2831 0.10103 14.8983 -0.0139669C12.5136 -0.128964 10.1684 0.627367 8.30015 2.11397C7.89477 1.46348 7.32959 0.927606 6.65845 0.557418C5.9873 0.187229 5.23255 -0.004948 4.46609 -0.000805283C3.69963 0.00333743 2.947 0.203662 2.2799 0.581084C1.61279 0.958506 1.05344 1.50045 0.655122 2.1553C0.256805 2.81014 0.0327933 3.55606 0.00442894 4.32201C-0.0239355 5.08795 0.144292 5.8484 0.493084 6.53091C0.841877 7.21342 1.35962 7.79525 1.99698 8.22098C2.63434 8.64671 3.37009 8.90215 4.13415 8.96298C3.81908 10.8939 4.11338 12.875 4.97615 14.631C5.02311 14.721 5.04157 14.8231 5.02907 14.9239C5.01657 15.0246 4.97369 15.1192 4.90615 15.195L2.00015 16.945C1.26066 17.3343 0.672746 17.9599 0.330054 18.7221C-0.0126379 19.4843 -0.0903896 20.3393 0.109186 21.1508C0.308761 21.9624 0.774182 22.6838 1.4313 23.2001C2.08842 23.7165 2.89944 23.998 3.73515 24C3.88788 24 4.04047 23.9909 4.19215 23.973C4.74788 23.9083 5.28175 23.7186 5.7537 23.4181C6.22565 23.1176 6.62341 22.7142 6.91715 22.238L8.98515 19.111C9.05972 19.038 9.15526 18.9902 9.25837 18.9742C9.36148 18.9583 9.467 18.975 9.56015 19.022C11.4269 19.9258 13.5348 20.205 15.5725 19.8184C17.6101 19.4317 19.4693 18.3997 20.8751 16.875C22.7889 14.9897 23.9072 12.4427 24.0001 9.75798C24.0518 8.46244 23.8352 7.1702 23.3639 5.96234C22.8926 4.75448 22.1767 3.65707 21.2611 2.73897ZM2.00015 4.49997C2.00015 4.00552 2.14677 3.52217 2.42147 3.11105C2.69617 2.69993 3.08662 2.37949 3.54344 2.19028C4.00025 2.00106 4.50292 1.95155 4.98787 2.04801C5.47282 2.14447 5.91828 2.38258 6.26791 2.73221C6.61754 3.08184 6.85565 3.5273 6.95211 4.01225C7.04857 4.4972 6.99906 4.99987 6.80984 5.45668C6.62063 5.9135 6.30019 6.30395 5.88907 6.57865C5.47795 6.85335 4.9946 6.99997 4.50015 6.99997C3.8371 6.99997 3.20122 6.73658 2.73238 6.26774C2.26354 5.7989 2.00015 5.16302 2.00015 4.49997ZM10.4401 17.226C9.93918 16.978 9.36943 16.9055 8.82232 17.0201C8.2752 17.1347 7.78246 17.4298 7.42315 17.858C7.39915 17.887 7.37715 17.917 7.35615 17.948L5.22915 21.166C5.01949 21.5088 4.69779 21.7685 4.31854 21.9012C3.93929 22.034 3.52582 22.0315 3.14817 21.8943C2.77052 21.7571 2.45191 21.4935 2.24634 21.1483C2.04076 20.8031 1.96085 20.3974 2.02015 20C2.06299 19.7201 2.17272 19.4547 2.34002 19.2263C2.50732 18.9979 2.72725 18.8132 2.98115 18.688L6.02215 16.857C6.06651 16.8304 6.10865 16.8003 6.14815 16.767C6.57522 16.407 6.86884 15.9138 6.98184 15.3668C7.09483 14.8198 7.02062 14.2507 6.77115 13.751C6.11811 12.433 5.87665 10.949 6.07815 9.49197L14.5111 17.925C13.1152 18.0882 11.7017 17.8455 10.4401 17.226ZM19.4611 15.461C18.6755 16.2484 17.7487 16.8811 16.7291 17.326C16.7201 17.316 16.7171 17.303 16.7071 17.293L7.36015 7.94497C7.87061 7.5272 8.28236 7.00169 8.56589 6.40611C8.84942 5.81052 8.99771 5.1596 9.00015 4.49997C9.00015 4.38097 8.97415 4.26897 8.96515 4.15297C10.4457 2.78261 12.3888 2.02138 14.4061 2.02138C16.4235 2.02138 18.3666 2.78261 19.8471 4.15297C20.5692 4.87906 21.1332 5.74669 21.5038 6.70131C21.8743 7.65593 22.0433 8.67688 22.0001 9.69998C21.9218 11.8744 21.0132 13.9361 19.4611 15.461Z" fill="#1D2E66"/>
</g>
<defs>
<clipPath id="clip0_216_274">
<rect width="24" height="24" fill="white"/>
</clipPath>
</defs>
</svg>
