<svg width="64" height="64" viewBox="0 0 64 64" fill="none" xmlns="http://www.w3.org/2000/svg">
<path d="M40.4779 41.6384C40.4779 42.8864 40.4779 44.032 40.4779 45.1755C40.4779 48.0085 40.4907 50.8416 40.4736 53.6747C40.4608 55.7483 39.5477 57.312 37.7515 58.3765C37.5616 58.4896 37.4037 58.7797 37.3717 59.008C37.2907 59.5819 37.3632 60.1835 37.2416 60.7445C36.9088 62.2827 35.4645 63.2896 33.92 63.1317C32.3776 62.976 31.1723 61.6875 31.1189 60.1323C31.1083 59.7867 31.1189 59.4411 31.1189 59.0443H16.5504C16.5504 59.3664 16.5568 59.7035 16.5504 60.0405C16.5056 61.7813 15.1467 63.136 13.4443 63.1424C11.712 63.1488 10.2869 61.7792 10.336 60.0064C10.3637 59.0421 10.1419 58.4448 9.2608 57.8837C7.86987 56.9984 7.20427 55.5541 7.20213 53.8987C7.18507 44.1664 7.18293 34.4341 7.20213 24.7019C7.2064 21.824 9.48693 19.5776 12.3755 19.5435C14.3893 19.52 16.4053 19.5349 18.4213 19.5307C18.4619 19.5307 18.5024 19.5115 18.5899 19.4901V7.08053C18.2656 7.08053 17.9477 7.09333 17.632 7.07839C16.9749 7.04426 16.5739 6.66879 16.5632 6.01813C16.544 4.65493 16.5419 3.29386 16.5632 1.93066C16.5739 1.20959 17.0027 0.857593 17.8155 0.85546C21.3483 0.851193 24.8789 0.85546 28.4117 0.85546C28.9109 0.85546 29.408 0.84906 29.9072 0.85546C30.7179 0.870393 31.1083 1.24373 31.1168 2.04799C31.1296 3.32373 31.1296 4.59946 31.1168 5.87519C31.1104 6.68586 30.7243 7.06133 29.92 7.08266C29.6597 7.08906 29.4016 7.08266 29.0901 7.08266V19.3301C29.8389 18.8715 30.5323 18.4469 31.2256 18.0203C34.7285 15.8699 38.2379 13.728 41.7301 11.5584C42.3275 11.1872 42.8224 11.1979 43.4091 11.5605C47.7163 14.2229 52.032 16.8704 56.3477 19.5157C56.7979 19.7909 57.1328 20.1131 57.1264 20.6891C57.056 27.3237 55.0485 33.1776 50.144 37.8453C48.2773 39.6224 46.1312 40.9813 43.7675 42.0203C42.9269 42.3893 42.1611 42.432 41.3568 42.0075C41.1115 41.8773 40.8469 41.7899 40.4843 41.6384H40.4779ZM27.8037 21.6192H27.3728C22.4555 21.6192 17.536 21.6171 12.6187 21.6192C10.5579 21.6192 9.27147 22.9163 9.27147 24.9941C9.26933 34.5088 9.26933 44.0213 9.27147 53.536C9.27147 55.6437 10.5579 56.9152 12.6827 56.9152C20.1131 56.9173 27.5456 56.9173 34.976 56.9152C37.1285 56.9152 38.3957 55.6395 38.3979 53.4763C38.4 49.7579 38.3317 46.0352 38.4341 42.3189C38.4704 40.992 38.1952 40.0789 36.96 39.4667C36.3669 39.1744 35.8869 38.656 35.2768 38.1781C35.2768 38.5387 35.2768 38.7755 35.2768 39.0101C35.2768 42.88 35.2875 46.752 35.2725 50.6219C35.2661 52.4907 33.7984 53.8837 31.9851 53.7963C30.2997 53.7131 29.0389 52.3392 29.0389 50.5451C29.0325 43.2789 29.0389 36.0149 29.0347 28.7488C29.0347 28.4907 29.0411 28.2261 28.9941 27.9744C28.6123 25.8965 28.2197 23.8229 27.8059 21.6171L27.8037 21.6192ZM30.08 21.7621C30.1376 22.4811 30.1611 23.0656 30.2379 23.6437C30.3381 24.3925 30.4448 25.1435 30.6091 25.8795C32.0661 32.4651 35.8507 37.184 41.9925 40.0192C42.4043 40.2091 42.7499 40.192 43.1573 40.0085C45.0475 39.1595 46.7797 38.0736 48.3264 36.6912C52.8491 32.6507 54.8011 27.4752 55.0059 21.5424C55.0144 21.3205 54.7712 21.0069 54.56 20.8768C50.7349 18.5045 46.8928 16.1621 43.0699 13.7899C42.6709 13.5424 42.4043 13.5787 42.0267 13.8133C38.2571 16.1493 34.4768 18.4704 30.688 20.7765C30.2315 21.0539 29.9349 21.3355 30.08 21.7621ZM26.9099 19.5136V7.13386H20.7467V19.5093H26.9099V19.5136ZM31.1467 33.1797C31.1317 33.3504 31.1168 33.4485 31.1168 33.5488C31.1168 39.2085 31.1147 44.8683 31.1168 50.528C31.1168 51.2747 31.552 51.744 32.1813 51.7227C32.8021 51.7035 33.1904 51.2363 33.1904 50.464C33.1947 45.7771 33.1947 41.088 33.1883 36.4011C33.1883 36.2155 33.1755 35.9936 33.0773 35.8507C32.4651 34.9739 31.8272 34.1163 31.1424 33.1776L31.1467 33.1797ZM18.6475 4.95359H28.9899V2.97813H18.6475V4.95359ZM14.4533 59.0293H12.3861C12.4501 59.7013 12.1429 60.4587 12.8704 60.8619C13.1627 61.024 13.7045 61.0219 13.9925 60.8555C14.6987 60.4459 14.4405 59.7035 14.4533 59.0293ZM33.2075 59.0187C33.2373 59.7376 32.9536 60.5184 33.7451 60.9045C34.0331 61.0453 34.5408 61.0155 34.8139 60.8469C35.5008 60.416 35.2555 59.6907 35.2469 59.0208H33.2096L33.2075 59.0187Z" fill="#6479BF"/>
<path d="M12.3925 39.2C12.3925 35.4176 12.3776 31.6331 12.3989 27.8507C12.4117 25.7195 14.4299 24.256 16.4416 24.8768C17.7515 25.28 18.624 26.4725 18.6304 27.9232C18.6411 30.7776 18.6347 33.6299 18.6347 36.4843C18.6347 41.1968 18.6389 45.9093 18.6304 50.624C18.6283 52.0469 17.7771 53.2224 16.4971 53.6448C15.2427 54.0587 13.8816 53.6491 13.0581 52.6037C12.5845 52.0021 12.3883 51.3152 12.3904 50.5515C12.3968 46.7691 12.3947 42.9845 12.3947 39.2021L12.3925 39.2ZM14.4725 39.2021C14.4725 42.9227 14.4725 46.6432 14.4725 50.3616C14.4725 51.2405 14.8437 51.7205 15.5093 51.7205C16.1728 51.7205 16.5461 51.2341 16.5525 50.3616C16.5525 50.2976 16.5525 50.2315 16.5525 50.1675C16.5525 42.9013 16.5525 35.6331 16.5525 28.3669C16.5525 28.1301 16.576 27.8827 16.5227 27.6565C16.4011 27.1381 16.0576 26.816 15.5093 26.8224C14.9355 26.8288 14.5877 27.1573 14.4875 27.7205C14.4533 27.9104 14.4725 28.1088 14.4725 28.3029C14.4725 31.936 14.4725 35.5691 14.4725 39.2043V39.2021Z" fill="#6479BF"/>
<path d="M26.9547 39.2811C26.9547 43.0635 26.9611 46.848 26.9504 50.6304C26.9461 52.0256 26.1227 53.1819 24.8704 53.6235C23.6309 54.0608 22.1909 53.7152 21.4379 52.6272C21.0539 52.0725 20.7488 51.328 20.7445 50.6688C20.6976 43.0805 20.7083 35.4923 20.7168 27.904C20.7168 26.1184 22.0843 24.7424 23.8101 24.7339C25.5637 24.7253 26.9419 26.1056 26.9483 27.9296C26.9611 31.712 26.9525 35.4965 26.9525 39.2789L26.9547 39.2811ZM22.7947 39.2683C22.7947 42.9675 22.7947 46.6645 22.7947 50.3637C22.7947 51.2427 23.1659 51.7205 23.8315 51.7205C24.4949 51.7205 24.8683 51.2341 24.8747 50.3616C24.8747 50.2976 24.8747 50.2315 24.8747 50.1675C24.8747 42.9013 24.8747 35.6331 24.8747 28.3669C24.8747 28.1301 24.8981 27.8827 24.8448 27.6565C24.7211 27.1381 24.3797 26.816 23.8315 26.8224C23.2576 26.8288 22.9099 27.1595 22.8096 27.7205C22.7755 27.9104 22.7947 28.1088 22.7947 28.3029C22.7947 31.9573 22.7947 35.6139 22.7947 39.2683Z" fill="#6479BF"/>
<path d="M32.2709 23.0592C32.2091 22.5216 32.4331 22.1483 32.8875 21.8709C35.8784 20.0405 38.8672 18.2101 41.8475 16.3669C42.3531 16.0555 42.8096 16.0768 43.3024 16.3797C46.2507 18.1952 49.2011 20.0064 52.1579 21.8069C52.6827 22.1269 52.9045 22.5387 52.8363 23.1509C52.1259 29.6256 49.0539 34.5387 43.2491 37.6597C42.7392 37.9328 42.2805 37.8944 41.7771 37.6235C36.4011 34.7221 33.3568 30.2059 32.4224 24.2197C32.3627 23.8357 32.32 23.4496 32.2709 23.0635V23.0592ZM34.4277 23.5157C34.4576 23.7013 34.4683 23.7653 34.4768 23.8293C35.2149 28.9045 37.7024 32.8299 42.1675 35.4389C42.3573 35.5499 42.7221 35.5563 42.9099 35.4475C47.4261 32.8213 49.9328 28.8619 50.6432 23.7312C50.6667 23.5584 50.5301 23.2704 50.3808 23.1765C47.8869 21.6213 45.3803 20.0832 42.8651 18.56C42.72 18.4725 42.4363 18.4597 42.2976 18.5451C39.7653 20.0789 37.2437 21.632 34.7243 23.1915C34.5835 23.2789 34.4917 23.4432 34.4299 23.5136L34.4277 23.5157Z" fill="#6479BF"/>
<path d="M41.4891 28.4992C42.9333 27.0528 44.2901 25.6939 45.6469 24.3371C45.8005 24.1856 45.9456 24.0192 46.1227 23.8997C46.5728 23.5904 47.0357 23.616 47.4261 23.9915C47.84 24.3861 47.8741 24.8619 47.552 25.3397C47.456 25.4805 47.3259 25.6 47.2043 25.7237C45.6448 27.2832 44.0853 28.8405 42.5216 30.3957C41.7408 31.1744 41.2949 31.168 40.4992 30.3765C39.9317 29.8133 39.36 29.2544 38.8032 28.6784C38.2997 28.1579 38.2699 27.5669 38.6987 27.1296C39.1296 26.6901 39.7355 26.7008 40.2517 27.1979C40.6549 27.5861 41.0261 28.0107 41.4869 28.5013L41.4891 28.4992Z" fill="#6479BF"/>
</svg>
