<svg width="64" height="64" viewBox="0 0 64 64" fill="none" xmlns="http://www.w3.org/2000/svg">
<g clip-path="url(#clip0_16_77)">
<path d="M36.7701 63.2341C35.5477 62.7925 35.0976 61.9157 35.1253 60.6336C35.1787 58.1525 35.1403 55.6693 35.1424 53.1861C35.1424 51.7355 35.5563 51.2 36.928 50.7413C37.0709 50.6944 37.2117 50.3893 37.2139 50.2016C37.2331 48.6976 37.1669 47.1893 37.6171 45.7216C38.5195 42.7776 40.1387 40.4864 43.1445 39.3344C45.0176 38.6176 46.7349 37.568 48.2091 36.2112C50.1547 34.4192 52.2325 33.952 54.6539 35.2533C55.3813 33.5552 56.096 31.8784 56.8171 30.2037C57.4016 28.8469 58.4085 28.0576 59.9125 28.0299C62.3637 27.9829 63.951 30.4384 62.9419 32.7467C61.9243 35.0741 60.7787 37.3461 59.8208 39.6971C58.7328 42.3701 57.1563 44.6443 55.0294 46.592C53.3824 48.1024 51.8507 49.7408 50.2229 51.3707C50.9099 52.1963 50.7669 53.1861 50.7691 54.1483C50.7733 56.2453 50.7264 58.3424 50.7861 60.4352C50.8224 61.7216 50.4555 62.6965 49.2224 63.232H36.7659L36.7701 63.2341ZM39.3621 50.6965C39.4837 50.7115 39.5819 50.7349 39.68 50.7349C42.304 50.7371 44.928 50.7456 47.552 50.7221C47.7952 50.72 48.0853 50.5451 48.2688 50.3637C50.5515 48.1024 52.8448 45.8475 55.0763 43.5349C55.744 42.8416 56.3712 42.0437 56.7851 41.184C58.2549 38.1291 59.6309 35.0272 61.0219 31.9339C61.1392 31.6757 61.1755 31.3301 61.1179 31.0528C61.0048 30.5045 60.6208 30.1781 60.0469 30.1312C59.4155 30.08 59.0016 30.3936 58.7605 30.9547C58.0288 32.6507 57.2885 34.3445 56.5781 36.0512C55.8955 37.6896 54.9205 39.1189 53.6619 40.3669C52.3029 41.7131 50.9568 43.0699 49.6043 44.4203C49.4037 44.6208 49.2245 44.9109 48.9813 44.9899C48.6272 45.1029 48.1408 45.2053 47.8635 45.0453C47.5883 44.8853 47.3941 44.4053 47.3685 44.0512C47.3515 43.7931 47.6245 43.4688 47.8421 43.2469C49.2949 41.7664 50.7776 40.3136 52.2325 38.8331C52.7381 38.3168 53.1904 37.7472 53.6704 37.2011C52.5589 36.3179 51.2277 36.3669 50.1525 37.3205C48.1408 39.1061 45.8923 40.5013 43.3984 41.5061C42.4533 41.888 41.6981 42.5195 41.0795 43.3323C39.4197 45.5104 39.1381 48.0085 39.3643 50.6944L39.3621 50.6965ZM48.64 61.1285V52.8661H37.2715V61.1285H48.64Z" fill="#6479BF"/>
<path d="M14.7904 63.2341C13.5573 62.6987 13.1947 61.7259 13.2267 60.4395C13.2843 58.0821 13.2181 55.7205 13.2587 53.3611C13.2693 52.6997 13.4763 52.0405 13.5936 51.3792C13.6533 51.3792 13.7131 51.3792 13.7728 51.3792C13.6363 51.2341 13.5019 51.0848 13.3589 50.9419C11.4325 49.0133 9.5104 47.0805 7.57547 45.1605C6.49387 44.0875 5.6448 42.8629 5.01974 41.4741C3.75467 38.6581 2.46827 35.8528 1.1968 33.0389C1.02187 32.6528 0.893871 32.2475 0.744537 31.8507C0.744537 31.5243 0.744537 31.2 0.744537 30.8736C0.787204 30.7627 0.838404 30.656 0.870404 30.5429C1.2672 29.1584 2.42987 28.1792 3.80374 28.0747C5.21814 27.9659 6.496 28.6912 7.09974 30.0224C7.80374 31.5755 8.4544 33.152 9.1264 34.72C9.19894 34.8864 9.27147 35.0528 9.29707 35.1147C10.2165 34.912 11.0827 34.6283 11.968 34.5451C13.1499 34.4341 14.2229 34.8629 15.1061 35.648C17.024 37.3547 19.1872 38.6368 21.5403 39.6565C24.3712 40.8832 25.8027 43.2917 26.4683 46.1525C26.7627 47.4197 26.7051 48.7723 26.7733 50.0864C26.7947 50.4917 26.8117 50.7285 27.3216 50.8181C28.1856 50.9675 28.8363 51.7547 28.8448 52.6421C28.8725 55.5285 28.8747 58.4171 28.8448 61.3035C28.8341 62.336 28.1259 62.88 27.2384 63.232H14.7819L14.7904 63.2341ZM10.3467 37.2075C10.8288 37.7557 11.2832 38.3253 11.7909 38.8416C13.2885 40.3648 14.8139 41.8603 16.3136 43.3813C16.9749 44.0512 16.7808 45.0475 15.9317 45.184C15.5819 45.2395 15.0784 45.0453 14.8139 44.7893C13.2011 43.2384 11.6309 41.6427 10.0565 40.0555C8.9408 38.9291 8.1024 37.6171 7.4816 36.1621C6.74774 34.4448 6.00747 32.7275 5.27574 31.0101C5.07947 30.5493 4.78294 30.1333 4.27094 30.1632C3.86774 30.1867 3.40054 30.3659 3.104 30.6325C2.70934 30.9888 2.77974 31.5093 3.0016 31.9936C4.352 34.9483 5.65334 37.9285 7.06774 40.8533C7.53707 41.824 8.19414 42.7499 8.9408 43.5307C11.1616 45.8539 13.4613 48.1003 15.7525 50.3552C15.968 50.5664 16.3435 50.7179 16.6464 50.72C19.1275 50.7499 21.6107 50.7371 24.0917 50.7349C24.2837 50.7349 24.4779 50.7136 24.8235 50.6923C24.6891 49.2267 24.7104 47.8016 24.3989 46.4555C23.9275 44.3989 22.9269 42.5515 20.8896 41.6533C18.2613 40.4949 15.8293 39.0805 13.6747 37.1712C12.7381 36.3413 11.3771 36.3904 10.3488 37.2075H10.3467ZM26.752 61.12V52.8597H15.3707V61.12H26.752Z" fill="#6479BF"/>
<path d="M48.6379 17.4635C48.6379 20.2304 48.7381 23.0016 48.6123 25.7621C48.4608 29.0624 47.0229 31.8421 44.4053 33.8368C40.7189 36.6464 36.9131 39.3003 33.1477 42.0053C32.3819 42.5557 31.5947 42.5323 30.8224 41.9755C27.1893 39.3643 23.5328 36.7851 19.9467 34.112C16.8576 31.808 15.3536 28.64 15.3387 24.7957C15.3152 19.5051 15.3387 14.2165 15.3259 8.92587C15.3259 8.23041 15.5755 7.80374 16.2368 7.51787C21.2501 5.34614 26.2528 3.15094 31.2512 0.945074C31.7781 0.71254 32.2325 0.706141 32.7616 0.938674C37.7429 3.13387 42.7285 5.32054 47.7227 7.48374C48.4224 7.78667 48.7019 8.23041 48.6955 8.98134C48.672 11.8101 48.6869 14.6368 48.6869 17.4656C48.672 17.4656 48.6549 17.4656 48.64 17.4656L48.6379 17.4635ZM17.4229 17.7963C17.4229 20.1173 17.4187 22.4363 17.4229 24.7573C17.4293 28.0875 18.7904 30.7285 21.4848 32.6784C24.8469 35.1104 28.2219 37.5253 31.5733 39.9701C31.9275 40.2283 32.1344 40.192 32.4629 39.9531C35.8037 37.5253 39.1595 35.1189 42.5045 32.6997C45.1968 30.752 46.5792 28.1173 46.5856 24.7872C46.5963 19.8016 46.5856 14.8139 46.5984 9.82827C46.5984 9.42294 46.4789 9.21387 46.1035 9.04961C41.5381 7.06561 36.9813 5.06241 32.4139 3.08267C32.1899 2.98454 31.8485 2.97814 31.6267 3.07627C27.0592 5.05387 22.5024 7.05921 17.9371 9.04107C17.5381 9.21387 17.408 9.43147 17.4101 9.86027C17.4293 12.5056 17.4208 15.1509 17.4208 17.7984L17.4229 17.7963Z" fill="#6479BF"/>
<path d="M40.8299 58.0139C40.7275 58.0139 40.6272 58.0139 40.5248 58.0139C39.7397 57.9947 39.3088 57.6171 39.3195 56.9621C39.3301 56.3413 39.7696 55.9552 40.5056 55.9339C40.8085 55.9253 41.1157 55.9147 41.4165 55.9445C42.0459 56.0064 42.432 56.4437 42.4085 57.0325C42.3851 57.5979 41.9968 57.9691 41.3781 58.0096C41.1968 58.0203 41.0133 58.0096 40.8299 58.0096C40.8299 58.0096 40.8299 58.0117 40.8299 58.0139Z" fill="#6479BF"/>
<path d="M23.1125 58.0053C22.9291 58.0053 22.7456 58.0181 22.5664 58.0032C22.0181 57.9541 21.6533 57.5957 21.6107 57.0816C21.5659 56.5333 21.8795 56.0619 22.432 55.9787C22.8672 55.9125 23.3237 55.9147 23.7653 55.9573C24.3584 56.0149 24.7211 56.4715 24.6955 57.0368C24.6699 57.6 24.2795 57.9712 23.6608 58.0117C23.4795 58.0224 23.296 58.0117 23.1125 58.0117V58.0075V58.0053Z" fill="#6479BF"/>
<path d="M19.5115 18.5237C19.5115 16.2453 19.5328 13.9648 19.4987 11.6864C19.488 10.9205 19.7867 10.5045 20.4821 10.2059C24.1024 8.64853 27.7099 7.06133 31.3131 5.46773C31.7995 5.25226 32.2261 5.2544 32.7104 5.46773C36.3541 7.07413 40.0021 8.66987 43.6544 10.2549C44.2517 10.5152 44.512 10.9184 44.5099 11.5755C44.4949 16.0128 44.5099 20.448 44.4992 24.8853C44.4928 27.424 43.4325 29.4443 41.3888 30.9312C38.5451 33.0027 35.6843 35.0528 32.8277 37.1072C32.1536 37.5915 31.8571 37.5851 31.1787 37.0987C28.3243 35.0421 25.4635 32.992 22.6176 30.9227C20.5909 29.4485 19.5349 27.4496 19.5157 24.9344C19.4987 22.7968 19.5115 20.6613 19.5115 18.5237ZM42.4171 18.9333C42.4171 16.8171 42.4 14.7008 42.4299 12.5845C42.4363 12.1173 42.272 11.9125 41.8624 11.7355C38.7285 10.3851 35.6075 9.0048 32.4715 7.65867C32.2155 7.54987 31.8315 7.54133 31.5776 7.65013C28.4224 9.00267 25.2864 10.3979 22.1312 11.7504C21.7024 11.9339 21.5829 12.16 21.5851 12.608C21.6021 16.6357 21.6085 20.6656 21.5893 24.6933C21.5787 26.6581 22.3637 28.1813 23.9531 29.3184C26.4981 31.1424 29.0411 32.9707 31.5691 34.8181C31.9189 35.0741 32.1301 35.0485 32.4629 34.8053C34.9931 32.9579 37.5339 31.1296 40.0789 29.3035C41.6469 28.1771 42.4341 26.6645 42.4192 24.7275C42.4043 22.7947 42.4171 20.8619 42.4171 18.9291V18.9333Z" fill="#6479BF"/>
<path d="M29.6661 25.2629C29.824 25.0283 29.9605 24.8299 30.0949 24.6293C32.4501 21.0965 34.8053 17.5616 37.1627 14.0309C37.2864 13.8453 37.4059 13.6469 37.5701 13.5019C37.9691 13.1541 38.4213 13.1157 38.8565 13.4251C39.2619 13.7152 39.4005 14.1269 39.2235 14.6069C39.1552 14.7947 39.04 14.9675 38.9291 15.136C36.2944 19.0933 33.6576 23.0507 31.0187 27.0059C30.3723 27.9744 29.9115 28.0533 28.9749 27.3515C27.7397 26.4256 26.5003 25.5019 25.2693 24.5696C24.7125 24.1472 24.576 23.6437 24.8469 23.1424C25.1627 22.56 25.8581 22.4299 26.4683 22.8736C27.5179 23.6395 28.5525 24.4288 29.6661 25.2629Z" fill="#6479BF"/>
</g>
<defs>
<clipPath id="clip0_16_77">
<rect width="64" height="64" fill="white"/>
</clipPath>
</defs>
</svg>
