<svg width="79" height="152" viewBox="0 0 79 152" fill="none" xmlns="http://www.w3.org/2000/svg">
<g filter="url(#filter0_d_8_120)">
<circle cx="39.7973" cy="79.3378" r="31.0676" fill="#E22D3A"/>
</g>
<path d="M23.2967 106.974L10.9641 104.134L27.6779 66.1626V64.0531H5.60919V52.5319H40.6596V65.8381L23.2967 106.974Z" fill="white"/>
<path d="M35.5635 93.133L34.0502 92.6286L39.5407 79.0091L41.0539 79.533L35.5635 93.133ZM42.9528 92.7838V91.3675L46.5226 87.6231C47.0658 87.0541 47.5314 86.5496 47.9194 86.1099C48.3075 85.6701 48.6049 85.2368 48.8119 84.81C49.0188 84.3832 49.1223 83.924 49.1223 83.4325C49.1223 82.6177 48.8959 82.0616 48.4433 81.7641C48.0035 81.4537 47.3309 81.2985 46.4256 81.2985C46.0893 81.2985 45.7142 81.3243 45.3003 81.3761C44.8994 81.4149 44.5049 81.4666 44.1169 81.5313C43.7418 81.583 43.4249 81.6412 43.1662 81.7059L43.0304 80.309C43.315 80.2314 43.6577 80.1538 44.0587 80.0762C44.4596 79.9986 44.8994 79.9339 45.3779 79.8822C45.8565 79.8175 46.3221 79.7852 46.7748 79.7852C48.1328 79.7852 49.1546 80.0633 49.8401 80.6194C50.5386 81.1626 50.8878 82.0357 50.8878 83.2385C50.8878 83.8723 50.7843 84.4479 50.5774 84.9652C50.3834 85.4696 50.0859 85.9611 49.6849 86.4397C49.2969 86.9182 48.7925 87.455 48.1716 88.05L44.9317 91.3093H51.1788V92.7838H42.9528ZM59.3387 92.7838V90.3587H53.2274V89.0394L56.7584 79.9792H58.6403L54.9929 88.8454H59.3387L59.3581 84.9846H61.046V88.8454H62.598V90.3587H61.046V92.7838H59.3387Z" fill="white"/>
<defs>
<filter id="filter0_d_8_120" x="1.02703" y="40.5676" width="77.5405" height="77.5405" filterUnits="userSpaceOnUse" color-interpolation-filters="sRGB">
<feFlood flood-opacity="0" result="BackgroundImageFix"/>
<feColorMatrix in="SourceAlpha" type="matrix" values="0 0 0 0 0 0 0 0 0 0 0 0 0 0 0 0 0 0 127 0" result="hardAlpha"/>
<feMorphology radius="14.3784" operator="erode" in="SourceAlpha" result="effect1_dropShadow_8_120"/>
<feOffset/>
<feGaussianBlur stdDeviation="11.0405"/>
<feComposite in2="hardAlpha" operator="out"/>
<feColorMatrix type="matrix" values="0 0 0 0 0 0 0 0 0 0 0 0 0 0 0 0 0 0 1 0"/>
<feBlend mode="normal" in2="BackgroundImageFix" result="effect1_dropShadow_8_120"/>
<feBlend mode="normal" in="SourceGraphic" in2="effect1_dropShadow_8_120" result="shape"/>
</filter>
</defs>
</svg>
