<svg width="67" height="64" viewBox="0 0 67 64" fill="none" xmlns="http://www.w3.org/2000/svg">
<path d="M66.1245 37.7067C65.8923 38.816 65.7404 39.9467 65.4143 41.0304C64.2262 44.9813 61.6891 48.0533 58.4084 50.6091C56.2398 52.2987 53.8479 53.6384 51.2885 54.7179C50.8039 54.9227 50.3728 54.9504 49.8882 54.7499C45.5935 52.96 41.8772 50.4363 38.9337 46.912C38.7617 46.7072 38.4379 46.4939 38.1833 46.4939C31.6441 46.4704 25.1027 46.4768 18.5635 46.4768C18.463 46.4768 18.3625 46.4939 18.2017 46.5067C18.2017 47.0997 18.2106 47.6651 18.2017 48.2283C18.1637 50.1973 16.6138 51.6971 14.5636 51.7291C13.2906 51.7483 12.0153 51.7483 10.7423 51.7291C8.68096 51.6992 7.13549 50.2144 7.10646 48.2368C7.08636 46.9355 7.11763 45.6341 7.08859 44.3349C7.08189 44.0555 6.98139 43.7291 6.80943 43.5093C5.35776 41.6811 4.61183 39.6395 4.64979 37.3355C4.67213 35.9531 4.68106 34.5707 4.64979 33.1883C4.59843 30.9696 4.71456 28.7979 6.28683 26.8437C5.37786 26.8437 4.60066 26.848 3.82569 26.8437C2.01669 26.8352 0.879925 25.7557 0.879925 24.0277C0.879925 23.5221 0.862058 23.0016 0.975958 22.5152C1.23949 21.3867 2.03456 20.6613 3.21376 20.5547C4.30139 20.4565 5.42699 20.5013 6.50793 20.6592C7.69606 20.832 8.63406 21.5317 9.40903 22.4939C9.50953 22.3488 9.59663 22.2464 9.65469 22.1291C10.9255 19.6075 12.2096 17.088 13.4581 14.5557C14.4787 12.4864 16.1671 11.4432 18.5456 11.4347C21.7303 11.424 24.9151 11.4325 28.102 11.4325C32.6893 11.4325 37.2743 11.4517 41.8616 11.424C44.4165 11.4091 46.1853 12.4992 47.2529 14.6944C47.5477 15.3003 47.8447 15.9104 48.1976 16.4864C48.3025 16.6571 48.6197 16.8341 48.8117 16.8064C51.3265 16.4544 53.7206 16.8533 56.0075 17.8581C58.4553 18.9333 60.8874 20.0405 63.3128 21.1584C64.6885 21.7941 65.555 22.8608 65.9816 24.2603C66.0218 24.3925 66.0799 24.5184 66.129 24.6485V37.7024L66.1245 37.7067ZM35.2107 37.6917C32.9082 37.6917 30.6592 37.6917 28.4102 37.6917C26.9452 37.6917 25.4801 37.7045 24.015 37.6853C23.1597 37.6747 22.675 37.0283 22.9788 36.3435C23.2043 35.8379 23.6532 35.7333 24.1825 35.7355C27.5794 35.744 30.9786 35.7397 34.3755 35.7397C34.6189 35.7397 34.8623 35.7397 35.0924 35.7397V27.1723C34.945 27.1573 34.8422 27.136 34.7395 27.136C26.0965 27.136 17.4535 27.1317 8.81049 27.1467C8.59386 27.1467 8.31469 27.2768 8.17176 27.4347C7.35436 28.3413 6.73573 29.376 6.60843 30.5771C6.48783 31.7248 6.48336 32.8875 6.48783 34.0437C6.49229 35.5861 6.43646 37.1413 6.61959 38.6688C6.94789 41.4123 9.43136 44.6101 13.6412 44.5525C21.2636 44.4501 28.8882 44.5227 36.5128 44.5227H37.2654C36.8701 43.6267 36.4748 42.8032 36.142 41.9541C35.9969 41.5829 35.8026 41.4741 35.4028 41.4784C33.5558 41.4997 31.7089 41.4869 29.8597 41.4869C27.9278 41.4869 25.9938 41.4912 24.0619 41.4848C23.2914 41.4827 22.8894 41.12 22.9095 40.4885C22.9296 39.8827 23.3584 39.5392 24.1312 39.5371C27.6978 39.5328 31.2667 39.5371 34.8333 39.5371C35.0522 39.5371 35.271 39.5371 35.4899 39.5371C35.3916 38.8885 35.3068 38.3296 35.2085 37.6917H35.2107ZM46.4198 17.3333C46.1451 16.7808 45.8704 16.2795 45.6449 15.7568C44.9146 14.0693 43.6148 13.3611 41.7053 13.3717C34.1276 13.4123 26.5499 13.3888 18.9722 13.3888C18.7176 13.3888 18.463 13.3909 18.2084 13.4059C16.8572 13.4827 15.8969 14.1205 15.3117 15.2832C13.8958 18.0992 12.4843 20.9152 11.0662 23.7291C10.8116 24.2325 10.5302 24.7253 10.2555 25.2352H35.1102C35.28 23.1701 36.4123 21.8325 38.2994 20.9941C40.9906 19.8016 43.6661 18.5771 46.4198 17.3355V17.3333ZM64.2977 30.6752C64.2977 29.0091 64.2865 27.3408 64.3021 25.6747C64.3133 24.352 63.679 23.4155 62.4574 22.8565C60.0097 21.7344 57.5575 20.6208 55.0919 19.5349C52.5481 18.4149 49.8837 18.1867 47.2953 19.2043C44.3361 20.3669 41.4685 21.7408 38.5898 23.0805C37.5937 23.5435 37.1716 24.4267 37.1761 25.4976C37.185 29.1776 37.1761 32.8576 37.185 36.5376C37.1895 38.8757 37.7768 41.0901 38.898 43.1573C41.3993 47.7739 45.4238 50.7605 50.3237 52.7723C50.5359 52.8597 50.882 52.8149 51.0942 52.704C52.6374 51.8976 54.2276 51.1531 55.677 50.2101C58.8617 48.1408 61.4144 45.5083 62.9041 42.0523C64.0096 39.4859 64.2441 36.768 64.2954 34.0309C64.3155 32.9131 64.2999 31.7952 64.2977 30.6773V30.6752ZM16.1515 46.368C13.6859 46.3531 11.2627 46.624 9.03383 45.2821C9.03383 46.3595 9.00479 47.2939 9.04276 48.2261C9.07626 49.0496 9.68819 49.664 10.4654 49.6747C11.8456 49.6917 13.2258 49.6939 14.606 49.6661C15.4368 49.6512 16.0755 49.0901 16.1403 48.3093C16.1917 47.6885 16.1515 47.0592 16.1515 46.368ZM5.68159 25.0027C6.29799 25.0027 6.91216 25.0133 7.52856 25.0005C8.20079 24.9856 8.39286 24.6464 8.07573 24.1003C7.29629 22.7563 6.06796 22.3744 4.53589 22.4405C2.91226 22.5109 2.85419 22.5131 2.91003 24.0619C2.93236 24.6805 3.24279 24.9835 3.89939 24.9984C4.49346 25.0112 5.08753 25.0005 5.68159 25.0005V25.0027Z" fill="#6479BF"/>
<path d="M14.8494 36.7381C13.6189 36.7381 12.3861 36.7957 11.16 36.7232C9.7619 36.6379 9.1522 35.9509 9.14103 34.6304C9.13433 33.9605 9.12317 33.2885 9.14773 32.6187C9.19687 31.2661 10.4721 30.2848 11.8568 30.5536C13.6434 30.9013 15.4256 31.264 17.2011 31.6565C19.1017 32.0768 20.2787 33.7856 20.0062 35.6587C19.9169 36.2773 19.4925 36.6848 18.664 36.7211C17.3954 36.7787 16.1202 36.736 14.8472 36.736L14.8494 36.7381ZM17.9739 34.7861C17.8153 34.0907 17.4334 33.5957 16.7723 33.4421C15.0437 33.0389 13.3017 32.6912 11.5575 32.3563C11.4257 32.3307 11.1041 32.5824 11.093 32.7211C11.0438 33.3824 11.0706 34.0501 11.0706 34.7883H17.9739V34.7861Z" fill="#6479BF"/>
<path d="M40.0146 31.552C40.0146 29.8453 40.0325 28.1365 40.0057 26.4299C39.9945 25.7728 40.2692 25.3525 40.87 25.0795C43.0743 24.0811 45.2585 23.0443 47.4784 22.08C49.5398 21.184 51.6414 21.1925 53.705 22.0885C55.9048 23.0443 58.0801 24.0555 60.2754 25.0219C60.8963 25.2949 61.1487 25.7152 61.1464 26.3616C61.1308 29.6555 61.1531 32.9472 61.1353 36.2411C61.1129 40.7189 58.9533 44.1856 55.4269 46.9291C54.1673 47.9083 52.7268 48.6763 51.3577 49.5275C50.9245 49.7984 50.451 49.8539 49.9664 49.6128C46.7749 48.0171 43.9967 45.9605 42.0425 43.008C40.6913 40.9664 40.0325 38.7243 40.0146 36.3115C40.0035 34.7264 40.0146 33.1413 40.0124 31.5541L40.0146 31.552ZM59.1565 32.2581C59.1722 32.2581 59.1856 32.2581 59.2012 32.2581C59.2012 30.5515 59.2146 28.8427 59.1833 27.1381C59.1789 26.9141 58.9957 26.5856 58.7992 26.4917C56.8852 25.5723 54.9646 24.6656 53.0193 23.8123C51.4806 23.136 49.886 23.0997 48.3338 23.7845C46.3327 24.6677 44.3495 25.5893 42.3753 26.528C42.2033 26.6112 42.0671 26.9376 42.0671 27.1531C42.047 30.2208 42.0425 33.2907 42.0581 36.3584C42.0715 38.5493 42.7326 40.5589 44.0279 42.368C45.6516 44.6336 47.8648 46.2485 50.3416 47.5627C50.5091 47.6523 50.8329 47.6096 51.016 47.5115C52.8496 46.5451 54.5112 45.3525 55.9227 43.8677C57.7741 41.92 59.0158 39.6885 59.1409 37.0112C59.2146 35.4304 59.1543 33.8432 59.1543 32.2581H59.1565Z" fill="#6479BF"/>
<path d="M49.714 38.2635C51.3108 36.2752 52.8496 34.3595 54.3906 32.4437C54.5447 32.2517 54.6876 32.0405 54.8752 31.8805C55.2772 31.5435 55.744 31.4304 56.2152 31.7397C56.6396 32.0192 56.7267 32.6656 56.414 33.1136C56.2018 33.4165 55.9539 33.6981 55.7217 33.9883C54.1449 35.9552 52.5704 37.9243 50.9915 39.8912C50.3192 40.7296 49.8212 40.7936 48.9614 40.1643C47.8134 39.3259 46.6566 38.4981 45.522 37.6448C45.1223 37.344 44.8342 36.9323 45.0977 36.4224C45.33 35.9744 45.7722 35.7973 46.2747 35.8933C46.5092 35.9381 46.7303 36.0981 46.9313 36.2411C47.8447 36.896 48.7492 37.5659 49.7095 38.2677L49.714 38.2635Z" fill="#6479BF"/>
</svg>
