<svg width="14" height="14" viewBox="0 0 14 14" fill="none" xmlns="http://www.w3.org/2000/svg">
<g clip-path="url(#clip0_216_74)">
<path d="M9.91675 4.6673H4.08341V4.08396C4.08324 3.43728 4.29798 2.80888 4.69388 2.29755C5.08979 1.78622 5.6444 1.42096 6.27052 1.25921C6.89665 1.09745 7.55878 1.14836 8.15281 1.40395C8.74684 1.65953 9.23909 2.10528 9.55216 2.67113C9.58936 2.73812 9.63938 2.79713 9.69937 2.84479C9.75937 2.89245 9.82817 2.92782 9.90184 2.94889C9.9755 2.96997 10.0526 2.97632 10.1287 2.9676C10.2048 2.95887 10.2785 2.93524 10.3455 2.89805C10.4125 2.86086 10.4715 2.81083 10.5192 2.75084C10.5668 2.69084 10.6022 2.62205 10.6233 2.54838C10.6443 2.47471 10.6507 2.39761 10.642 2.32149C10.6332 2.24537 10.6096 2.17171 10.5724 2.10471C10.1339 1.31273 9.44467 0.688917 8.61302 0.33133C7.78136 -0.0262563 6.85446 -0.0973399 5.97801 0.129253C5.10155 0.355846 4.32524 0.867268 3.77111 1.58313C3.21698 2.29899 2.91645 3.17869 2.91675 4.08396V4.91463C2.39721 5.14138 1.955 5.5146 1.64421 5.98867C1.33341 6.46274 1.16749 7.0171 1.16675 7.58397V11.084C1.16767 11.8572 1.47526 12.5986 2.02204 13.1453C2.56882 13.6921 3.31015 13.9997 4.08341 14.0006H9.91675C10.69 13.9997 11.4313 13.6921 11.9781 13.1453C12.5249 12.5986 12.8325 11.8572 12.8334 11.084V7.58397C12.8325 6.8107 12.5249 6.06937 11.9781 5.52259C11.4313 4.97581 10.69 4.66822 9.91675 4.6673ZM11.6667 11.084C11.6667 11.5481 11.4824 11.9932 11.1542 12.3214C10.826 12.6496 10.3809 12.834 9.91675 12.834H4.08341C3.61929 12.834 3.17417 12.6496 2.84598 12.3214C2.51779 11.9932 2.33341 11.5481 2.33341 11.084V7.58397C2.33341 7.11984 2.51779 6.67472 2.84598 6.34653C3.17417 6.01834 3.61929 5.83396 4.08341 5.83396H9.91675C10.3809 5.83396 10.826 6.01834 11.1542 6.34653C11.4824 6.67472 11.6667 7.11984 11.6667 7.58397V11.084Z" fill="white"/>
<path d="M7.00008 8.16699C6.84537 8.16699 6.697 8.22845 6.5876 8.33785C6.47821 8.44724 6.41675 8.59562 6.41675 8.75032V9.91699C6.41675 10.0717 6.47821 10.2201 6.5876 10.3295C6.697 10.4389 6.84537 10.5003 7.00008 10.5003C7.1548 10.5003 7.30317 10.4389 7.41257 10.3295C7.52196 10.2201 7.58342 10.0717 7.58342 9.91699V8.75032C7.58342 8.59562 7.52196 8.44724 7.41257 8.33785C7.30317 8.22845 7.1548 8.16699 7.00008 8.16699Z" fill="white"/>
</g>
<defs>
<clipPath id="clip0_216_74">
<rect width="14" height="14" fill="white"/>
</clipPath>
</defs>
</svg>
