<svg width="22" height="22" viewBox="0 0 22 22" fill="none" xmlns="http://www.w3.org/2000/svg">
<path fill-rule="evenodd" clip-rule="evenodd" d="M18.7956 3.19733C16.7268 1.13667 13.9765 0.000916667 11.0465 0C5.00883 0 0.0948713 4.8895 0.092108 10.901C0.0911869 12.8223 0.595939 14.6978 1.55478 16.3515L0 22L5.80649 20.4838C7.4064 21.3528 9.20804 21.8103 11.041 21.8112H11.0456C17.0824 21.8112 21.9972 16.9207 22 10.9093C22.0018 7.997 20.8634 5.25708 18.7956 3.19733ZM11.0465 19.9696H11.0428C9.40883 19.9696 7.80707 19.5323 6.40887 18.7064L6.07636 18.5103L2.6306 19.4095L3.55076 16.0655L3.33431 15.7227C2.42244 14.2798 1.94164 12.6124 1.94256 10.901C1.9444 5.90517 6.02939 1.84067 11.0511 1.84067C13.4828 1.84067 15.7689 2.78483 17.4876 4.49717C19.2064 6.21042 20.1523 8.4865 20.1514 10.9074C20.1486 15.9051 16.0646 19.9696 11.0465 19.9696ZM16.0406 13.1835C15.767 13.0469 14.4214 12.3878 14.1699 12.2971C13.9194 12.2063 13.737 12.1605 13.5537 12.4327C13.3704 12.705 12.8472 13.3192 12.687 13.5016C12.5276 13.6831 12.3673 13.706 12.0938 13.5694C11.8202 13.4328 10.9378 13.1459 9.8924 12.2173C9.07909 11.495 8.5292 10.6031 8.36985 10.3299C8.21051 10.0568 8.35328 9.91008 8.4896 9.77442C8.61302 9.6525 8.76316 9.45633 8.9004 9.29683C9.03856 9.13917 9.08369 9.0255 9.1758 8.84308C9.26699 8.66158 9.22185 8.50208 9.15277 8.3655C9.08369 8.22983 8.53657 6.88875 8.30906 6.34333C8.08708 5.81167 7.86142 5.88408 7.69286 5.87583C7.53351 5.86758 7.35114 5.86667 7.16785 5.86667C6.98547 5.86667 6.68888 5.9345 6.43835 6.20767C6.18782 6.48083 5.48043 7.13992 5.48043 8.48008C5.48043 9.82117 6.46138 11.1164 6.5977 11.2979C6.73402 11.4794 8.52736 14.2313 11.2731 15.411C11.9261 15.6915 12.4364 15.8593 12.8334 15.9848C13.4892 16.192 14.0861 16.1627 14.5577 16.093C15.0836 16.0151 16.1769 15.4339 16.4054 14.7978C16.6338 14.1616 16.6338 13.6152 16.5647 13.5025C16.4965 13.3879 16.3142 13.3201 16.0406 13.1835Z" fill="white"/>
</svg>
