<svg width="84" height="16" viewBox="0 0 84 16" fill="none" xmlns="http://www.w3.org/2000/svg">
<g clip-path="url(#clip0_216_278)">
<path d="M1.25632 13.7237C1.12965 13.699 0.999076 13.6847 0.875652 13.6483C0.304004 13.4785 0.0220776 12.9556 0.024676 12.5009C0.0305224 11.6073 0.0233768 10.713 0.0292232 9.81931C0.0305224 9.6411 0.0519592 9.46029 0.0850888 9.28533C0.116919 9.11883 0.207214 8.97444 0.331287 8.85606C0.908132 8.30517 1.48238 7.75232 2.06377 7.20598C2.23267 7.04728 2.44054 6.95622 2.67764 6.95492C3.6423 6.94972 4.6076 6.93671 5.57226 6.94517C6.16794 6.95037 6.61682 7.30875 6.73634 7.86354C6.78246 8.07622 6.78376 8.30127 6.78376 8.52045C6.78376 9.4024 6.77337 10.2837 6.77272 11.1657C6.77272 11.3887 6.69022 11.5748 6.53627 11.7224C5.9211 12.3136 5.30138 12.9003 4.67971 13.4857C4.51991 13.6359 4.31983 13.699 4.10221 13.7055C3.88525 13.712 3.66893 13.7179 3.45197 13.7237H1.25632Z" fill="#1D2E66"/>
<path d="M6.94031 -0.0143021C7.43725 -0.0143021 7.93419 -0.0149525 8.43114 -0.0143021C8.6494 -0.0143021 8.83259 0.0663483 8.98849 0.221145C10.4572 1.68261 11.9292 3.14212 13.3973 4.60424C14.716 5.91741 16.0308 7.23448 17.3482 8.54895C17.5333 8.73302 17.6314 8.94765 17.6301 9.21302C17.6256 10.1288 17.6295 11.0439 17.6256 11.9597C17.6243 12.2355 17.5808 12.5054 17.4281 12.7428C17.2345 13.0446 16.961 13.2455 16.6031 13.2846C16.2445 13.3236 15.8814 13.3366 15.5209 13.3392C14.8349 13.3437 14.1489 13.334 13.4623 13.3262C13.2239 13.3236 13.0277 13.2195 12.8608 13.0517C11.6609 11.8478 10.4592 10.6465 9.26003 9.44131C7.6828 7.85562 6.10817 6.26667 4.53094 4.68098C4.37049 4.51968 4.29254 4.32976 4.29254 4.10537C4.29254 3.12391 4.28994 2.1431 4.29254 1.16163C4.29384 0.48521 4.78039 -0.00649726 5.45597 -0.0136517C5.95096 -0.018855 6.44531 -0.0149525 6.94031 -0.0149525V-0.0143021Z" fill="black"/>
<path d="M16.6434 -0.0141989C17.1403 -0.0141989 17.6373 -0.0148493 18.1342 -0.0141989C18.3525 -0.0141989 18.5357 0.0671019 18.6916 0.221899C20.1603 1.68336 21.6323 3.14287 23.1004 4.60499C24.4191 5.91816 25.7339 7.23523 27.0513 8.5497C27.2364 8.73442 27.3338 8.9484 27.3325 9.21377C27.328 10.1295 27.3319 11.0447 27.328 11.9604C27.3267 12.2362 27.2825 12.5061 27.1299 12.7435C26.9356 13.0453 26.6628 13.2456 26.3049 13.2847C25.9489 13.3237 25.5897 13.3386 25.2317 13.3406C24.5425 13.3445 23.8533 13.3341 23.1641 13.3256C22.9399 13.323 22.7477 13.2339 22.5898 13.0759C21.2926 11.777 19.9947 10.4782 18.6987 9.17735C17.5626 8.03653 16.4284 6.89377 15.2942 5.75165C14.9401 5.39523 14.5893 5.03491 14.2334 4.68044C14.0723 4.51978 13.9956 4.32922 13.9956 4.10417C13.9956 3.12271 13.993 2.1419 13.9956 1.16044C13.9969 0.484663 14.4835 -0.00379243 15.1597 -0.0148493C15.4065 -0.0187518 15.6534 -0.0233046 15.8996 -0.0252558C16.1477 -0.0272071 16.3959 -0.0252558 16.6434 -0.0252558C16.6434 -0.0213534 16.6434 -0.0181014 16.6434 -0.0141989Z" fill="black"/>
<path d="M82.4343 8.31299H28.9072V9.939H82.4343V8.31299Z" fill="#1D2E66"/>
<path d="M54.7028 1.27466C55.1406 2.32051 55.5772 3.36767 56.0163 4.41287C56.4918 5.54458 56.9706 6.67563 57.448 7.80669C57.4701 7.85937 57.4954 7.91076 57.5331 7.99206C57.7468 7.48604 57.9489 7.00929 58.1502 6.53255C58.8635 4.84084 59.5781 3.14978 60.2868 1.45612C60.3355 1.34035 60.392 1.30263 60.5154 1.30523C60.9422 1.31303 61.369 1.30848 61.8062 1.30848V9.61222H60.4843V4.58913C60.4713 4.58523 60.4583 4.58133 60.4453 4.57677C60.4212 4.6236 60.3946 4.66913 60.3745 4.71791C59.7151 6.28669 59.0538 7.85417 58.401 9.42555C58.338 9.5771 58.2672 9.63628 58.0989 9.63043C57.7066 9.61612 57.3129 9.61872 56.9206 9.63043C56.7848 9.63433 56.7276 9.5849 56.6783 9.46718C56.0066 7.85937 55.3297 6.25352 54.6541 4.64767C54.6294 4.58978 54.6015 4.5332 54.5463 4.47986V9.61417H53.225V1.27466C53.7174 1.27466 54.2104 1.27466 54.7028 1.27466Z" fill="black"/>
<path d="M33.2712 1.27466C33.4687 2.00116 33.6694 2.72767 33.863 3.45547C34.4002 5.46978 34.9348 7.48539 35.4695 9.50035C35.4786 9.53352 35.4831 9.56734 35.4922 9.61417H34.1202C34.0027 9.16669 33.8753 8.71271 33.7662 8.25417C33.7279 8.09222 33.6681 8.03303 33.4914 8.03498C32.6353 8.04604 31.7791 8.04019 30.9229 8.04019H30.7235C30.5825 8.57352 30.4442 9.09645 30.3045 9.62588H28.9066C28.9066 9.61417 28.9066 9.60246 28.9066 9.59076C28.9169 9.57059 28.9319 9.55173 28.9377 9.53027C29.5029 7.42035 30.0661 5.30978 30.6312 3.19986C30.8034 2.55726 30.9827 1.91661 31.1587 1.27466H33.2699H33.2712ZM33.3355 6.66068C32.9653 5.28116 32.5989 3.91661 32.2332 2.55206C32.2202 2.55336 32.2072 2.55466 32.1942 2.55531C31.8278 3.92051 31.4614 5.28572 31.0931 6.66068H33.3362H33.3355Z" fill="black"/>
<path d="M37.9165 8.84733L37.9165 4.58731H38.6954C38.7538 4.58731 38.8136 4.58016 38.8714 4.58862C39.3138 4.6504 39.7224 4.4917 40.1427 4.40195C41.6543 4.0787 43.1913 5.13886 43.4381 6.66796C43.6817 8.17886 42.5508 9.65008 41.0404 9.81073C40.3856 9.88032 39.7861 9.7548 39.2235 9.42114C39.1995 9.40683 39.1728 9.39707 39.128 9.37626C39.1248 9.45236 39.1196 9.51349 39.1196 9.57463C39.1196 11.213 39.1196 6.93073 39.1196 8.5691C39.1196 8.63935 39.13 9.30601 39.128 9.37626L37.9172 11.6226L37.9165 8.84733ZM40.6922 8.63935C41.5608 8.63935 42.2675 7.93951 42.263 7.08553C42.2584 6.23219 41.5497 5.53821 40.6819 5.53886C39.8296 5.53886 39.1215 6.2413 39.1196 7.08748C39.1183 7.94341 39.8237 8.64 40.6922 8.63935Z" fill="black"/>
<path d="M72.9325 1.27466C72.928 1.35011 72.9195 1.4262 72.9195 1.50165C72.9189 4.12539 72.9195 6.74848 72.9195 9.37222V9.60116C72.6181 9.68181 72.3713 9.61157 72.1634 9.39824C72.04 9.27141 71.9399 9.27271 71.7808 9.38263C70.199 10.476 68.0164 9.46002 67.7838 7.54848C67.622 6.21775 68.486 4.90848 69.856 4.63791C70.4381 4.52279 70.9954 4.60864 71.5242 4.87856C71.5749 4.90458 71.6249 4.93059 71.7002 4.96962V1.27466C72.1108 1.27466 72.5213 1.27466 72.9319 1.27466H72.9325ZM71.7002 7.21872C71.7002 6.42458 71.0994 5.78653 70.3497 5.78523C69.5929 5.78393 68.9609 6.43433 68.9628 7.21417C68.9641 7.98815 69.5916 8.63921 70.3354 8.63921C71.0922 8.63921 71.7002 8.00702 71.7002 7.21872Z" fill="black"/>
<path d="M82.4342 9.62591C82.0198 9.71826 81.7463 9.44574 81.4981 9.26948C81.1259 9.43859 80.8018 9.63631 80.4497 9.73648C78.9374 10.1657 77.3985 9.10948 77.2192 7.54396C77.0601 6.15013 77.913 4.93843 79.2752 4.64379C79.9475 4.4981 80.5731 4.64119 81.1577 4.99826C81.237 5.04639 81.3396 5.07501 81.4325 5.07761C81.7664 5.08672 82.1003 5.08152 82.4342 5.08152V9.62721V9.62591ZM81.1396 7.20965C81.1376 6.4155 80.5244 5.7833 79.7559 5.78526C79.0225 5.78656 78.3989 6.43761 78.3937 7.20574C78.3885 7.98493 79.0212 8.63989 79.7786 8.63924C80.5296 8.63924 81.1415 7.99599 81.1402 7.20965H81.1396Z" fill="black"/>
<path d="M37.2831 1.27466C37.2851 1.32734 37.289 1.38002 37.289 1.43271C37.289 4.09742 37.289 6.76279 37.289 9.4275C37.289 9.48539 37.289 9.54328 37.289 9.61352H36.0865V1.27466C36.4854 1.27466 36.8843 1.27466 37.2831 1.27466Z" fill="black"/>
<path d="M76.5924 1.27466V2.461H75.3958V1.27466H76.5924Z" fill="black"/>
<path d="M48.772 7.51016H45.2661C45.2511 7.96935 45.5597 8.40642 46.0053 8.56837C46.473 8.73813 47.0895 8.64772 47.5143 8.02073C47.8567 8.19959 48.201 8.3791 48.5596 8.56577C48.4179 8.87016 48.2127 9.10756 47.9645 9.30333C46.5757 10.3986 44.4632 9.73 44.1078 7.97715C43.9318 7.10886 43.9474 6.22756 44.558 5.4848C45.166 4.74528 45.9637 4.4578 46.892 4.64057C47.8541 4.83049 48.5225 5.40805 48.759 6.3778C48.8447 6.72967 48.7726 7.12057 48.7726 7.50951L48.772 7.51016ZM47.4455 6.30561C47.133 5.91992 46.7641 5.74561 46.3061 5.78788C45.9475 5.82106 45.6656 5.99536 45.4311 6.30561H47.4448H47.4455Z" fill="black"/>
<path d="M67.1453 7.51535H63.6277C63.6498 8.02332 63.9544 8.42982 64.4156 8.58267C64.9567 8.76153 65.4173 8.58852 65.8889 8.02201C66.2313 8.20088 66.5756 8.38169 66.9335 8.56901C66.6438 9.10884 66.2248 9.47112 65.6726 9.67795C64.2877 10.1989 62.7631 9.40998 62.4746 7.96868C62.3012 7.10039 62.3168 6.21844 62.9319 5.47828C63.5432 4.74202 64.3403 4.45714 65.2692 4.64315C66.2326 4.83567 66.8952 5.41844 67.1316 6.38559C67.2167 6.73291 67.1453 7.1186 67.1453 7.5147V7.51535ZM63.8024 6.30364H65.8123C65.5505 5.97974 65.2491 5.80218 64.8587 5.78527C64.4241 5.7664 64.085 5.94201 63.8018 6.30364H63.8024Z" fill="black"/>
<path d="M50.5837 9.61685H49.4034V4.59961C49.4398 4.59571 49.4839 4.58856 49.5281 4.58791C49.6983 4.58661 49.8678 4.5853 50.038 4.58791C50.5285 4.59441 51.0092 4.5762 51.4938 4.44547C51.8465 4.34986 52.2324 4.38043 52.615 4.35376V5.57457C52.4416 5.57457 52.2675 5.58628 52.0953 5.57262C51.2911 5.50953 50.5889 6.20807 50.5908 7.07896C50.5928 7.8653 50.5908 8.65165 50.5908 9.43799C50.5908 9.49522 50.5863 9.55246 50.5831 9.6175L50.5837 9.61685Z" fill="black"/>
<path d="M76.5787 9.6162H75.3854V5.79051H73.5055V4.60156H76.5787V9.61685V9.6162Z" fill="black"/>
</g>
<defs>
<clipPath id="clip0_216_278">
<rect width="83.0189" height="16" fill="white"/>
</clipPath>
</defs>
</svg>
