<svg width="98" height="19" viewBox="0 0 98 19" fill="none" xmlns="http://www.w3.org/2000/svg">
<g clip-path="url(#clip0_85_30)">
<path d="M1.48303 16.2967C1.3335 16.2674 1.17937 16.2504 1.03367 16.2071C0.358869 16.0055 0.0260675 15.3846 0.0291348 14.8447C0.0360362 13.7835 0.0276011 12.7215 0.0345025 11.6603C0.0360362 11.4486 0.0613413 11.2339 0.100449 11.0261C0.138024 10.8284 0.244612 10.657 0.391075 10.5164C1.07201 9.8622 1.74989 9.2057 2.43619 8.55692C2.63557 8.36846 2.88095 8.26033 3.16084 8.25879C4.29957 8.25261 5.43907 8.23716 6.57781 8.2472C7.28098 8.25338 7.81086 8.67895 7.95195 9.33777C8.0064 9.59033 8.00793 9.85757 8.00793 10.1179C8.00793 11.1652 7.99566 12.2117 7.99489 13.259C7.99489 13.524 7.89751 13.7448 7.71577 13.9202C6.98959 14.6222 6.25804 15.3189 5.52419 16.014C5.33555 16.1924 5.09937 16.2674 4.84248 16.2751C4.58637 16.2828 4.33101 16.2898 4.07489 16.2967H1.48303Z" fill="#7DFFB9"/>
<path d="M8.19273 -0.0169685C8.77935 -0.0169685 9.36597 -0.0177409 9.95259 -0.0169685C10.2102 -0.0169685 10.4265 0.0788038 10.6105 0.262625C12.3443 1.99811 14.0819 3.73128 15.815 5.46754C17.3716 7.02694 18.9237 8.59096 20.4788 10.1519C20.6973 10.3705 20.8131 10.6253 20.8116 10.9405C20.8062 12.028 20.8108 13.1147 20.8062 14.2021C20.8047 14.5296 20.7533 14.8501 20.5731 15.1321C20.3446 15.4904 20.0217 15.7291 19.5992 15.7754C19.1759 15.8218 18.7473 15.8372 18.3217 15.8403C17.5119 15.8457 16.7022 15.8341 15.8916 15.8249C15.6102 15.8218 15.3786 15.6982 15.1816 15.4989C13.7652 14.0693 12.3466 12.6427 10.9311 11.2116C9.06921 9.32856 7.21043 7.44169 5.34858 5.55868C5.15918 5.36714 5.06716 5.14161 5.06716 4.87515C5.06716 3.70966 5.06409 2.54494 5.06716 1.37945C5.06869 0.576202 5.64304 -0.00770023 6.44054 -0.0161962C7.02486 -0.022375 7.60841 -0.0177409 8.19273 -0.0177409V-0.0169685Z" fill="black"/>
<path d="M19.6468 -0.016968C20.2334 -0.016968 20.82 -0.0177404 21.4066 -0.016968C21.6643 -0.016968 21.8805 0.0795767 22.0646 0.263398C23.7984 1.99889 25.536 3.73206 27.269 5.46832C28.8256 7.02771 30.3777 8.59173 31.9328 10.1527C32.1514 10.372 32.2664 10.6261 32.2648 10.9412C32.2595 12.0287 32.2641 13.1154 32.2595 14.2029C32.2579 14.5304 32.2058 14.8509 32.0256 15.1328C31.7963 15.4912 31.4743 15.7291 31.0517 15.7754C30.6315 15.8218 30.2075 15.8395 29.7849 15.8419C28.9713 15.8465 28.1577 15.8341 27.3441 15.8241C27.0796 15.821 26.8526 15.7152 26.6663 15.5275C25.1349 13.9851 23.6028 12.4427 22.073 10.898C20.7318 9.54328 19.393 8.18624 18.0541 6.82998C17.6362 6.40673 17.2221 5.97884 16.8019 5.55791C16.6117 5.36714 16.5212 5.14084 16.5212 4.8736C16.5212 3.70811 16.5181 2.5434 16.5212 1.37791C16.5227 0.57543 17.0971 -0.00461032 17.8953 -0.0177404C18.1867 -0.0223745 18.4781 -0.027781 18.7688 -0.0300981C19.0617 -0.0324152 19.3546 -0.0300981 19.6468 -0.0300981C19.6468 -0.025464 19.6468 -0.0216022 19.6468 -0.016968Z" fill="black"/>
<path d="M97.3099 9.87146H34.1237V11.8024H97.3099V9.87146Z" fill="#7DFFB9"/>
<path d="M64.5742 1.51379C65.091 2.75575 65.6063 3.99924 66.1247 5.24042C66.686 6.58432 67.2512 7.92745 67.8148 9.27058C67.8408 9.33314 67.8707 9.39416 67.9152 9.4907C68.1675 8.88981 68.406 8.32367 68.6437 7.75753C69.4857 5.74863 70.3292 3.7405 71.1658 1.72928C71.2233 1.5918 71.29 1.54701 71.4357 1.55009C71.9395 1.55936 72.4433 1.55396 72.9594 1.55396V11.4146H71.3989V5.44973C71.3836 5.44509 71.3682 5.44046 71.3529 5.43505C71.3245 5.49066 71.2931 5.54473 71.2693 5.60266C70.491 7.46558 69.7104 9.32696 68.9397 11.193C68.8653 11.3729 68.7817 11.4432 68.5831 11.4363C68.12 11.4193 67.6553 11.4224 67.1921 11.4363C67.0318 11.4409 66.9644 11.3822 66.9061 11.2424C66.1132 9.33314 65.3142 7.42619 64.5167 5.51924C64.4875 5.4505 64.4546 5.38331 64.3894 5.31997V11.417H62.8297V1.51379C63.4109 1.51379 63.9929 1.51379 64.5742 1.51379Z" fill="black"/>
<path d="M39.2751 1.51379C39.5083 2.37652 39.7452 3.23924 39.9737 4.10351C40.6079 6.4955 41.239 8.88904 41.8701 11.2818C41.8808 11.3212 41.8862 11.3614 41.8969 11.417H40.2774C40.1386 10.8856 39.9883 10.3465 39.8595 9.80197C39.8142 9.60965 39.7437 9.53936 39.5351 9.54168C38.5244 9.55481 37.5138 9.54786 36.5031 9.54786H36.2677C36.1013 10.1812 35.9379 10.8022 35.7731 11.4309H34.1229C34.1229 11.417 34.1229 11.4031 34.1229 11.3892C34.1351 11.3652 34.1528 11.3428 34.1597 11.3173C34.8268 8.8118 35.4916 6.3055 36.1588 3.79997C36.362 3.03688 36.5736 2.27611 36.7814 1.51379H39.2736H39.2751ZM39.3511 7.90969C38.914 6.27152 38.4815 4.65111 38.0498 3.0307C38.0344 3.03225 38.0191 3.03379 38.0038 3.03457C37.5713 4.65575 37.1388 6.27693 36.704 7.90969H39.3518H39.3511Z" fill="black"/>
<path d="M44.7587 10.5062L44.7587 5.44744H45.6781C45.7472 5.44744 45.8177 5.43894 45.886 5.44898C46.4082 5.52236 46.8905 5.3339 47.3866 5.22731C49.171 4.84345 50.9853 6.1024 51.2767 7.91821C51.5643 9.7124 50.2292 11.4595 48.4464 11.6502C47.6734 11.7329 46.9656 11.5838 46.3016 11.1876C46.2732 11.1706 46.2418 11.159 46.1889 11.1343C46.185 11.2247 46.1789 11.2973 46.1789 11.3699C46.1789 13.3154 46.1789 8.23024 46.1789 10.1758C46.1789 10.2592 46.1912 11.0509 46.1889 11.1343L44.7595 13.8019L44.7587 10.5062ZM48.0354 10.2592C49.0606 10.2592 49.8949 9.42817 49.8895 8.41406C49.8842 7.40073 49.0476 6.57662 48.0231 6.5774C47.017 6.5774 46.1812 7.41154 46.1789 8.41638C46.1774 9.4328 47.0101 10.26 48.0354 10.2592Z" fill="black"/>
<path d="M86.0935 1.51379C86.0882 1.60339 86.0782 1.69375 86.0782 1.78335C86.0774 4.89904 86.0782 8.01396 86.0782 11.1296V11.4015C85.7224 11.4973 85.431 11.4139 85.1856 11.1605C85.0399 11.0099 84.9218 11.0115 84.734 11.142C82.8667 12.4403 80.2902 11.2339 80.0157 8.96396C79.8248 7.38371 80.8446 5.82896 82.4619 5.50766C83.1489 5.37095 83.8069 5.4729 84.4311 5.79343C84.4909 5.82432 84.5499 5.85522 84.6389 5.90156V1.51379C85.1235 1.51379 85.6081 1.51379 86.0928 1.51379H86.0935ZM84.6389 8.57237C84.6389 7.62932 83.9296 6.87164 83.0446 6.8701C82.1513 6.86855 81.4052 7.64091 81.4075 8.56697C81.409 9.48607 82.1498 10.2592 83.0278 10.2592C83.9211 10.2592 84.6389 9.50847 84.6389 8.57237Z" fill="black"/>
<path d="M97.3099 11.4309C96.8206 11.5405 96.4978 11.2169 96.2049 11.0076C95.7655 11.2084 95.3828 11.4432 94.9672 11.5622C93.182 12.0719 91.3654 10.8176 91.1538 8.95854C90.9659 7.30338 91.9728 5.86447 93.5808 5.51459C94.3745 5.34159 95.1129 5.51151 95.8031 5.93553C95.8966 5.99268 96.0178 6.02667 96.1274 6.02976C96.5216 6.04057 96.9157 6.03439 97.3099 6.03439V11.4324V11.4309ZM95.7816 8.56155C95.7793 7.6185 95.0554 6.86777 94.1483 6.87008C93.2825 6.87163 92.5464 7.64476 92.5402 8.55691C92.5341 9.4822 93.281 10.26 94.1751 10.2592C95.0615 10.2592 95.7839 9.49533 95.7823 8.56155H95.7816Z" fill="black"/>
<path d="M44.0111 1.51379C44.0134 1.57635 44.018 1.63892 44.018 1.70148C44.018 4.86583 44.018 8.03095 44.018 11.1953C44.018 11.264 44.018 11.3328 44.018 11.4162H42.5986V1.51379C43.0694 1.51379 43.5402 1.51379 44.0111 1.51379Z" fill="black"/>
<path d="M90.4138 1.51379V2.92257H89.0013V1.51379H90.4138Z" fill="black"/>
<path d="M57.5731 8.91845H53.4346C53.4169 9.46374 53.7812 9.98276 54.3072 10.1751C54.8593 10.3767 55.587 10.2693 56.0885 9.52475C56.4927 9.73715 56.8991 9.95032 57.3224 10.172C57.1552 10.5335 56.9129 10.8154 56.6199 11.0478C54.9805 12.3485 52.4868 11.5545 52.0673 9.47301C51.8595 8.44191 51.8779 7.39536 52.5987 6.51333C53.3165 5.63516 54.2581 5.29378 55.3539 5.51081C56.4896 5.73634 57.2786 6.42219 57.5578 7.57378C57.659 7.99162 57.5739 8.45581 57.5739 8.91768L57.5731 8.91845ZM56.0073 7.48805C55.6384 7.03004 55.2029 6.82305 54.6622 6.87325C54.239 6.91264 53.9062 7.11963 53.6293 7.48805H56.0065H56.0073Z" fill="black"/>
<path d="M79.2619 8.9246H75.1096C75.1356 9.52781 75.4953 10.0105 76.0397 10.192C76.6785 10.4044 77.2222 10.199 77.7789 9.52626C78.183 9.73866 78.5894 9.95338 79.0119 10.1758C78.6699 10.8169 78.1753 11.2471 77.5235 11.4927C75.8887 12.1113 74.0889 11.1745 73.7485 9.46293C73.5437 8.43183 73.5621 7.38452 74.2883 6.50557C75.0099 5.63127 75.9508 5.29297 77.0473 5.51387C78.1845 5.74248 78.9667 6.43452 79.2458 7.58301C79.3463 7.99545 79.2619 8.45346 79.2619 8.92383V8.9246ZM75.3159 7.4857H77.6884C77.3794 7.10106 77.0236 6.89021 76.5627 6.87013C76.0497 6.84773 75.6494 7.05626 75.3151 7.4857H75.3159Z" fill="black"/>
<path d="M59.7117 11.4201H58.3184V5.46212C58.3614 5.45748 58.4135 5.44899 58.4656 5.44821C58.6666 5.44667 58.8667 5.44513 59.0676 5.44821C59.6466 5.45594 60.214 5.43431 60.7861 5.27907C61.2024 5.16553 61.6579 5.20183 62.1096 5.17017V6.61988C61.9049 6.61988 61.6993 6.63378 61.4961 6.61756C60.5468 6.54265 59.7179 7.37216 59.7202 8.40634C59.7225 9.34013 59.7202 10.2739 59.7202 11.2077C59.7202 11.2757 59.7148 11.3436 59.711 11.4209L59.7117 11.4201Z" fill="black"/>
<path d="M90.3977 11.4194H88.9891V6.87635H86.7699V5.46448H90.3977V11.4201V11.4194Z" fill="black"/>
</g>
<defs>
<clipPath id="clip0_85_30">
<rect width="98" height="19" fill="white"/>
</clipPath>
</defs>
</svg>
